font.ufo
<glyph name="T" format="1">
	<unicode hex="0054"/>
	<advance width="492"/>
	<outline>
		<contour>
			<point x="180" y="0" type="line"/>
			<point x="210" y="0" type="line"/>
			<point x="336" y="632" type="line"/>
			<point x="542" y="632" type="line"/>
			<point x="548" y="660" type="line"/>
			<point x="106" y="660" type="line"/>
			<point x="100" y="632" type="line"/>
			<point x="306" y="632" type="line"/>
		</contour>
		<contour>
			<point name="aboveUC" x="338" y="682" type="move"/>
		</contour>
		<contour>
			<point name="baseLC" x="208" y="0" type="move"/>
		</contour>
		<contour>
			<point name="belowLC" x="202" y="-22" type="move"/>
		</contour>
	</outline>
</glyph>
<glyph name="yen" format="1">
	<unicode hex="00A5"/>
	<advance width="456"/>
	<outline>
		<contour>
			<point x="164" y="0" type="line"/>
			<point x="192" y="0" type="line"/>
			<point x="226" y="170" type="line"/>
			<point x="388" y="170" type="line"/>
			<point x="394" y="194" type="line"/>
			<point x="232" y="194" type="line"/>
			<point x="246" y="272" type="line"/>
			<point x="408" y="272" type="line"/>
			<point x="414" y="296" type="line"/>
			<point x="264" y="296" type="line"/>
			<point x="494" y="640" type="line"/>
			<point x="464" y="640" type="line"/>
			<point x="332" y="436" type="line"/>
			<point x="300" y="392"/>
			<point x="272" y="348"/>
			<point x="238" y="296" type="curve"/>
			<point x="234" y="296" type="line"/>
			<point x="222" y="348"/>
			<point x="210" y="392"/>
			<point x="198" y="436" type="curve" smooth="yes"/>
			<point x="142" y="640" type="line"/>
			<point x="114" y="640" type="line"/>
			<point x="212" y="296" type="line"/>
			<point x="62" y="296" type="line"/>
			<point x="56" y="272" type="line"/>
			<point x="218" y="272" type="line"/>
			<point x="204" y="194" type="line"/>
			<point x="42" y="194" type="line"/>
			<point x="36" y="170" type="line"/>
			<point x="198" y="170" type="line"/>
		</contour>
	</outline>
</glyph>
<glyph name="hungarumlautcmb" format="1">
	<unicode hex="030B"/>
	<outline>
		<contour>
			<point x="62" y="574" type="line"/>
			<point x="182" y="724" type="line"/>
			<point x="160" y="742" type="line"/>
			<point x="44" y="586" type="line"/>
		</contour>
		<contour>
			<point x="190" y="574" type="line"/>
			<point x="310" y="724" type="line"/>
			<point x="288" y="742" type="line"/>
			<point x="172" y="586" type="line"/>
		</contour>
		<contour>
			<point name="_aboveLC" x="104" y="502" type="move"/>
		</contour>
	</outline>
</glyph>
<glyph name="b.sups" format="1">
	<unicode hex="1D47"/>
	<advance width="352"/>
	<outline>
		<contour>
			<point x="86" y="410" type="line"/>
			<point x="98" y="452" type="line"/>
			<point x="102" y="452" type="line"/>
			<point x="120" y="416"/>
			<point x="150" y="402"/>
			<point x="182" y="402" type="curve" smooth="yes"/>
			<point x="272" y="402"/>
			<point x="358" y="498"/>
			<point x="358" y="618" type="curve" smooth="yes"/>
			<point x="358" y="694"/>
			<point x="320" y="734"/>
			<point x="264" y="734" type="curve" smooth="yes"/>
			<point x="218" y="734"/>
			<point x="182" y="714"/>
			<point x="148" y="686" type="curve"/>
			<point x="146" y="686" type="line"/>
			<point x="160" y="752" type="line"/>
			<point x="186" y="884" type="line"/>
			<point x="160" y="884" type="line"/>
			<point x="66" y="410" type="line"/>
		</contour>
		<contour>
			<point x="262" y="710" type="curve" smooth="yes"/>
			<point x="302" y="710"/>
			<point x="332" y="680"/>
			<point x="332" y="614" type="curve" smooth="yes"/>
			<point x="332" y="520"/>
			<point x="258" y="426"/>
			<point x="184" y="426" type="curve" smooth="yes"/>
			<point x="156" y="426"/>
			<point x="130" y="440"/>
			<point x="106" y="484" type="curve"/>
			<point x="140" y="652" type="line"/>
			<point x="178" y="686"/>
			<point x="222" y="710"/>
		</contour>
	</outline>
</glyph>
<glyph name="n.sups" format="1">
	<unicode hex="207F"/>
	<advance width="342"/>
	<outline>
		<contour>
			<point x="66" y="410" type="line"/>
			<point x="92" y="410" type="line"/>
			<point x="138" y="640" type="line"/>
			<point x="186" y="688"/>
			<point x="224" y="710"/>
			<point x="260" y="710" type="curve" smooth="yes"/>
			<point x="293" y="710"/>
			<point x="310" y="690"/>
			<point x="310" y="650" type="curve" smooth="yes"/>
			<point x="310" y="638"/>
			<point x="308" y="628"/>
			<point x="304" y="610" type="curve" smooth="yes"/>
			<point x="264" y="410" type="line"/>
			<point x="290" y="410" type="line"/>
			<point x="330" y="614" type="line" smooth="yes"/>
			<point x="334" y="632"/>
			<point x="336" y="640"/>
			<point x="336" y="656" type="curve" smooth="yes"/>
			<point x="336" y="704"/>
			<point x="318" y="734"/>
			<point x="262" y="734" type="curve" smooth="yes"/>
			<point x="222" y="734"/>
			<point x="186" y="710"/>
			<point x="148" y="678" type="curve"/>
			<point x="144" y="678" type="line"/>
			<point x="150" y="726" type="line"/>
			<point x="128" y="726" type="line"/>
		</contour>
	</outline>
</glyph>
<glyph name="triangleblackup" format="1">
	<unicode hex="25B2"/>
	<advance width="910"/>
	<outline>
		<contour>
			<point x="75" y="-60" type="line"/>
			<point x="875" y="-60" type="line"/>
			<point x="875" y="-58" type="line"/>
			<point x="477" y="780" type="line"/>
			<point x="473" y="780" type="line"/>
			<point x="75" y="-58" type="line"/>
		</contour>
	</outline>
</glyph>
<glyph name="Eogonek" format="1">
  <advance width="484"/>
  <outline>
    <contour>
      <point x="40" y="0" type="line"/>
      <point x="330" y="0" type="line"/>
      <point x="286" y="-30"/>
      <point x="238" y="-88"/>
      <point x="238" y="-140" type="curve" smooth="yes"/>
      <point x="238" y="-182"/>
      <point x="266" y="-202"/>
      <point x="304" y="-202" type="curve" smooth="yes"/>
      <point x="320" y="-202"/>
      <point x="340" y="-196"/>
      <point x="358" y="-186" type="curve"/>
      <point x="348" y="-164" type="line"/>
      <point x="334" y="-172"/>
      <point x="322" y="-176"/>
      <point x="306" y="-176" type="curve" smooth="yes"/>
      <point x="284" y="-176"/>
      <point x="268" y="-160"/>
      <point x="268" y="-134" type="curve" smooth="yes"/>
      <point x="268" y="-84"/>
      <point x="328" y="-6"/>
      <point x="390" y="0" type="curve"/>
      <point x="396" y="26" type="line"/>
      <point x="74" y="26" type="line"/>
      <point x="138" y="338" type="line"/>
      <point x="400" y="338" type="line"/>
      <point x="406" y="364" type="line"/>
      <point x="142" y="364" type="line"/>
      <point x="196" y="634" type="line"/>
      <point x="508" y="634" type="line"/>
      <point x="514" y="660" type="line"/>
      <point x="172" y="660" type="line"/>
    </contour>
    <contour>
      <point x="362" y="682" type="move" name="aboveUC"/>
    </contour>
  </outline>
</glyph>
<glyph name="H" format="1">
  <advance width="598"/>
  <outline>
    <contour>
      <point x="388" y="682" type="move" name="aboveUC"/>
    </contour>
    <contour>
      <point x="266" y="-22" type="move" name="belowLC"/>
    </contour>
    <contour>
      <point x="40" y="0" type="line"/>
      <point x="70" y="0" type="line"/>
      <point x="138" y="338" type="line"/>
      <point x="494" y="338" type="line"/>
      <point x="426" y="0" type="line"/>
      <point x="456" y="0" type="line"/>
      <point x="588" y="660" type="line"/>
      <point x="558" y="660" type="line"/>
      <point x="498" y="364" type="line"/>
      <point x="142" y="364" type="line"/>
      <point x="202" y="660" type="line"/>
      <point x="172" y="660" type="line"/>
    </contour>
  </outline>
</glyph>
<glyph name="I" format="1">
  <advance width="218"/>
  <outline>
    <contour>
      <point x="40" y="0" type="line"/>
      <point x="70" y="0" type="line"/>
      <point x="202" y="660" type="line"/>
      <point x="172" y="660" type="line"/>
    </contour>
    <contour>
      <point x="202" y="682" type="move" name="aboveUC"/>
    </contour>
    <contour>
      <point x="54" y="0" type="move" name="ogonekUC"/>
    </contour>
    <contour>
      <point x="62" y="-30" type="move" name="belowLC"/>
    </contour>
  </outline>
</glyph>
<glyph name="Iogonek.alt" format="1">
  <advance width="290"/>
  <outline>
    <contour>
      <point x="240" y="682" type="move" name="aboveUC"/>
    </contour>
    <contour>
      <point x="62" y="-202" type="curve" smooth="yes"/>
      <point x="76" y="-202"/>
      <point x="102" y="-194"/>
      <point x="118" y="-182" type="curve"/>
      <point x="108" y="-164" type="line"/>
      <point x="94" y="-172"/>
      <point x="82" y="-176"/>
      <point x="66" y="-176" type="curve" smooth="yes"/>
      <point x="44" y="-176"/>
      <point x="28" y="-160"/>
      <point x="28" y="-134" type="curve" smooth="yes"/>
      <point x="28" y="-88"/>
      <point x="70" y="-36"/>
      <point x="110" y="0" type="curve"/>
      <point x="198" y="0" type="line"/>
      <point x="204" y="26" type="line"/>
      <point x="114" y="26" type="line"/>
      <point x="236" y="634" type="line"/>
      <point x="326" y="634" type="line"/>
      <point x="332" y="660" type="line"/>
      <point x="124" y="660" type="line"/>
      <point x="118" y="634" type="line"/>
      <point x="206" y="634" type="line"/>
      <point x="84" y="26" type="line"/>
      <point x="-2" y="26" type="line"/>
      <point x="-8" y="0" type="line"/>
      <point x="82" y="0" type="line"/>
      <point x="46" y="-30"/>
      <point x="-2" y="-88"/>
      <point x="-2" y="-140" type="curve" smooth="yes"/>
      <point x="-2" y="-182"/>
      <point x="26" y="-202"/>
    </contour>
  </outline>
</glyph>
<glyph name="K" format="1">
  <advance width="522"/>
  <outline>
    <contour>
      <point x="386" y="682" type="move" name="aboveUC"/>
    </contour>
    <contour>
      <point x="262" y="-22" type="move" name="belowLC"/>
    </contour>
    <contour>
      <point x="40" y="0" type="line"/>
      <point x="70" y="0" type="line"/>
      <point x="120" y="244" type="line"/>
      <point x="288" y="400" type="line"/>
      <point x="432" y="0" type="line"/>
      <point x="464" y="0" type="line"/>
      <point x="312" y="420" type="line"/>
      <point x="564" y="660" type="line"/>
      <point x="526" y="660" type="line"/>
      <point x="130" y="290" type="line"/>
      <point x="128" y="290" type="line"/>
      <point x="202" y="660" type="line"/>
      <point x="172" y="660" type="line"/>
    </contour>
  </outline>
</glyph>
<glyph name="Lslash" format="1">
  <advance width="432"/>
  <outline>
    <contour>
      <point x="-2" y="216" type="line"/>
      <point x="96" y="262" type="line"/>
      <point x="122" y="274" type="line"/>
      <point x="336" y="376" type="line"/>
      <point x="342" y="408" type="line"/>
      <point x="128" y="306" type="line"/>
      <point x="102" y="294" type="line"/>
      <point x="4" y="248" type="line"/>
    </contour>
    <component base="L"/>
  </outline>
</glyph>
<glyph name="N" format="1">
  <advance width="600"/>
  <outline>
    <contour>
      <point x="398" y="682" type="move" name="aboveUC"/>
    </contour>
    <contour>
      <point x="260" y="-30" type="move" name="belowLC"/>
    </contour>
    <contour>
      <point x="40" y="0" type="line"/>
      <point x="70" y="0" type="line"/>
      <point x="156" y="436" type="line" smooth="yes"/>
      <point x="168" y="496"/>
      <point x="180" y="558"/>
      <point x="190" y="622" type="curve"/>
      <point x="194" y="622" type="line"/>
      <point x="244" y="484" type="line"/>
      <point x="426" y="0" type="line"/>
      <point x="458" y="0" type="line"/>
      <point x="590" y="660" type="line"/>
      <point x="560" y="660" type="line"/>
      <point x="474" y="230" type="line" smooth="yes"/>
      <point x="462" y="168"/>
      <point x="452" y="104"/>
      <point x="442" y="42" type="curve"/>
      <point x="438" y="42" type="line"/>
      <point x="390" y="174" type="line"/>
      <point x="206" y="660" type="line"/>
      <point x="172" y="660" type="line"/>
    </contour>
  </outline>
</glyph>
<glyph name="O" format="1">
  <advance width="612"/>
  <outline>
    <contour>
      <point x="274" y="-12" type="curve" smooth="yes"/>
      <point x="472" y="-12"/>
      <point x="584" y="222"/>
      <point x="584" y="398" type="curve" smooth="yes"/>
      <point x="584" y="558"/>
      <point x="516" y="672"/>
      <point x="372" y="672" type="curve" smooth="yes"/>
      <point x="174" y="672"/>
      <point x="62" y="438"/>
      <point x="62" y="262" type="curve" smooth="yes"/>
      <point x="62" y="102"/>
      <point x="130" y="-12"/>
    </contour>
    <contour>
      <point x="276" y="14" type="curve" smooth="yes"/>
      <point x="146" y="14"/>
      <point x="92" y="118"/>
      <point x="92" y="266" type="curve" smooth="yes"/>
      <point x="92" y="422"/>
      <point x="190" y="646"/>
      <point x="370" y="646" type="curve" smooth="yes"/>
      <point x="500" y="646"/>
      <point x="554" y="542"/>
      <point x="554" y="394" type="curve" smooth="yes"/>
      <point x="554" y="238"/>
      <point x="456" y="14"/>
    </contour>
    <contour>
      <point x="406" y="682" type="move" name="aboveUC"/>
    </contour>
    <contour>
      <point x="498" y="650" type="move" name="hornLC"/>
    </contour>
    <contour>
      <point x="276" y="0" type="move" name="ogonekUC"/>
    </contour>
    <contour>
      <point x="270" y="-22" type="move" name="belowLC"/>
    </contour>
  </outline>
</glyph>
<glyph name="Ohorn" format="1">
  <advance width="612"/>
  <outline>
    <contour>
      <point x="501" y="620" type="line"/>
      <point x="565" y="631"/>
      <point x="626" y="670"/>
      <point x="626" y="748" type="curve" smooth="yes"/>
      <point x="626" y="762"/>
      <point x="624" y="775"/>
      <point x="618" y="792" type="curve"/>
      <point x="588" y="779" type="line"/>
      <point x="594" y="765"/>
      <point x="594" y="753"/>
      <point x="594" y="742" type="curve" smooth="yes"/>
      <point x="594" y="683"/>
      <point x="547" y="647"/>
      <point x="474" y="644" type="curve"/>
    </contour>
    <component base="O"/>
    <contour>
      <point x="406" y="682" type="move" name="aboveUC"/>
    </contour>
    <contour>
      <point x="270" y="-22" type="move" name="belowLC"/>
    </contour>
  </outline>
</glyph>
<glyph name="Oslash" format="1">
  <advance width="612"/>
  <outline>
    <contour>
      <point x="406" y="682" type="move" name="aboveUC"/>
    </contour>
    <contour>
      <point x="24" y="-22" type="line"/>
      <point x="642" y="660" type="line"/>
      <point x="626" y="678" type="line"/>
      <point x="2" y="-4" type="line"/>
    </contour>
    <component base="O"/>
  </outline>
</glyph>
<glyph name="Schwa" format="1">
  <advance width="610"/>
  <outline>
    <contour>
      <point x="260" y="-12" type="curve" smooth="yes"/>
      <point x="438" y="-12"/>
      <point x="584" y="162"/>
      <point x="584" y="398" type="curve" smooth="yes"/>
      <point x="584" y="560"/>
      <point x="522" y="672"/>
      <point x="380" y="672" type="curve" smooth="yes"/>
      <point x="310" y="672"/>
      <point x="240" y="638"/>
      <point x="194" y="594" type="curve"/>
      <point x="212" y="574" type="line"/>
      <point x="256" y="616"/>
      <point x="316" y="646"/>
      <point x="378" y="646" type="curve" smooth="yes"/>
      <point x="508" y="646"/>
      <point x="554" y="544"/>
      <point x="554" y="392" type="curve" smooth="yes"/>
      <point x="554" y="178"/>
      <point x="426" y="14"/>
      <point x="262" y="14" type="curve" smooth="yes"/>
      <point x="138" y="14"/>
      <point x="70" y="120"/>
      <point x="94" y="296" type="curve"/>
      <point x="552" y="296" type="line"/>
      <point x="558" y="322" type="line"/>
      <point x="72" y="322" type="line"/>
      <point x="66" y="290"/>
      <point x="62" y="264"/>
      <point x="62" y="226" type="curve" smooth="yes"/>
      <point x="62" y="90"/>
      <point x="132" y="-12"/>
    </contour>
    <contour>
      <point x="445" y="682" type="move" name="aboveUC"/>
    </contour>
    <contour>
      <point x="283" y="-22" type="move" name="belowLC"/>
    </contour>
  </outline>
</glyph>
<glyph name="Uhorn" format="1">
  <advance width="600"/>
  <outline>
    <contour>
      <point x="580" y="636" type="line"/>
      <point x="644" y="647"/>
      <point x="706" y="686"/>
      <point x="706" y="764" type="curve" smooth="yes"/>
      <point x="706" y="778"/>
      <point x="704" y="791"/>
      <point x="698" y="808" type="curve"/>
      <point x="668" y="795" type="line"/>
      <point x="674" y="781"/>
      <point x="674" y="769"/>
      <point x="674" y="758" type="curve" smooth="yes"/>
      <point x="674" y="699"/>
      <point x="628" y="663"/>
      <point x="556" y="660" type="curve"/>
    </contour>
    <component base="U"/>
    <contour>
      <point x="396" y="682" type="move" name="aboveUC"/>
    </contour>
    <contour>
      <point x="254" y="-22" type="move" name="belowLC"/>
    </contour>
  </outline>
</glyph>
<glyph name="X" format="1">
  <advance width="446"/>
  <outline>
    <contour>
      <point x="322" y="682" type="move" name="aboveUC"/>
    </contour>
    <contour>
      <point x="256" y="-30" type="move" name="belowLC"/>
    </contour>
    <contour>
      <point x="-36" y="0" type="line"/>
      <point x="-4" y="0" type="line"/>
      <point x="154" y="212" type="line" smooth="yes"/>
      <point x="178" y="244"/>
      <point x="206" y="284"/>
      <point x="234" y="318" type="curve"/>
      <point x="236" y="318" type="line"/>
      <point x="248" y="284"/>
      <point x="260" y="250"/>
      <point x="272" y="218" type="curve" smooth="yes"/>
      <point x="350" y="0" type="line"/>
      <point x="380" y="0" type="line"/>
      <point x="256" y="338" type="line"/>
      <point x="500" y="660" type="line"/>
      <point x="468" y="660" type="line"/>
      <point x="316" y="456" type="line" smooth="yes"/>
      <point x="294" y="426"/>
      <point x="270" y="394"/>
      <point x="246" y="366" type="curve"/>
      <point x="244" y="366" type="line"/>
      <point x="232" y="396"/>
      <point x="225" y="420"/>
      <point x="214" y="450" type="curve" smooth="yes"/>
      <point x="140" y="660" type="line"/>
      <point x="110" y="660" type="line"/>
      <point x="224" y="344" type="line"/>
    </contour>
  </outline>
</glyph>
<glyph name="Y" format="1">
  <advance width="422"/>
  <outline>
    <contour>
      <point x="304" y="682" type="move" name="aboveUC"/>
    </contour>
    <contour>
      <point x="170" y="-30" type="move" name="belowLC"/>
    </contour>
    <contour>
      <point x="140" y="0" type="line"/>
      <point x="170" y="0" type="line"/>
      <point x="225" y="273" type="line"/>
      <point x="498" y="660" type="line"/>
      <point x="466" y="660" type="line"/>
      <point x="315" y="445" type="line" smooth="yes"/>
      <point x="282" y="398"/>
      <point x="250" y="350"/>
      <point x="217" y="303" type="curve"/>
      <point x="214" y="303" type="line"/>
      <point x="200" y="352"/>
      <point x="188" y="397"/>
      <point x="175" y="445" type="curve" smooth="yes"/>
      <point x="116" y="660" type="line"/>
      <point x="86" y="660" type="line"/>
      <point x="195" y="273" type="line"/>
    </contour>
  </outline>
</glyph>
<glyph name="Z" format="1">
  <advance width="502"/>
  <outline>
    <contour>
      <point x="354" y="682" type="move" name="aboveUC"/>
    </contour>
    <contour>
      <point x="208" y="-30" type="move" name="belowLC"/>
    </contour>
    <contour>
      <point x="2" y="0" type="line"/>
      <point x="410" y="0" type="line"/>
      <point x="416" y="26" type="line"/>
      <point x="46" y="26" type="line"/>
      <point x="524" y="642" type="line"/>
      <point x="528" y="660" type="line"/>
      <point x="158" y="660" type="line"/>
      <point x="152" y="634" type="line"/>
      <point x="486" y="634" type="line"/>
      <point x="6" y="18" type="line"/>
    </contour>
  </outline>
</glyph>
<glyph name="a.sups" format="1">
  <advance width="346"/>
  <outline>
    <contour>
      <point x="64" y="378" type="curve" smooth="yes"/>
      <point x="64" y="302"/>
      <point x="102" y="262"/>
      <point x="158" y="262" type="curve" smooth="yes"/>
      <point x="204" y="262"/>
      <point x="244" y="286"/>
      <point x="278" y="322" type="curve"/>
      <point x="282" y="322" type="line"/>
      <point x="272" y="270" type="line"/>
      <point x="294" y="270" type="line"/>
      <point x="356" y="586" type="line"/>
      <point x="336" y="586" type="line"/>
      <point x="324" y="544" type="line"/>
      <point x="320" y="544" type="line"/>
      <point x="302" y="580"/>
      <point x="272" y="594"/>
      <point x="240" y="594" type="curve" smooth="yes"/>
      <point x="150" y="594"/>
      <point x="64" y="498"/>
    </contour>
    <contour>
      <point x="160" y="286" type="curve" smooth="yes"/>
      <point x="120" y="286"/>
      <point x="90" y="316"/>
      <point x="90" y="382" type="curve" smooth="yes"/>
      <point x="90" y="476"/>
      <point x="164" y="570"/>
      <point x="238" y="570" type="curve" smooth="yes"/>
      <point x="266" y="570"/>
      <point x="292" y="556"/>
      <point x="316" y="512" type="curve"/>
      <point x="286" y="360" type="line"/>
      <point x="248" y="318"/>
      <point x="200" y="286"/>
    </contour>
  </outline>
</glyph>
<glyph name="acutecmb.cap" format="1">
  <advance width="0"/>
  <outline>
    <contour>
      <point x="136" y="682" type="move" name="_aboveUC"/>
    </contour>
    <contour>
      <point x="122" y="710" type="line"/>
      <point x="242" y="812" type="line"/>
      <point x="204" y="812" type="line"/>
      <point x="94" y="710" type="line"/>
    </contour>
  </outline>
</glyph>
<glyph name="acutecmb" format="1">
  <advance width="0"/>
  <outline>
    <contour>
      <point x="104" y="502" type="move" name="_aboveLC"/>
    </contour>
    <contour>
      <point x="84" y="580" type="line"/>
      <point x="242" y="716" type="line"/>
      <point x="222" y="740" type="line"/>
      <point x="68" y="598" type="line"/>
    </contour>
  </outline>
</glyph>
<glyph name="acutecmb.cap" format="1">
  <advance width="0"/>
  <outline>
    <contour>
      <point x="136" y="682" type="move" name="_aboveUC"/>
    </contour>
    <contour>
      <point x="116" y="716" type="line"/>
      <point x="262" y="816" type="line"/>
      <point x="244" y="842" type="line"/>
      <point x="104" y="732" type="line"/>
    </contour>
  </outline>
</glyph>
<glyph name="aogonek" format="1">
  <advance width="524"/>
  <outline>
    <contour>
      <point x="304" y="-202" type="curve" smooth="yes"/>
      <point x="320" y="-202"/>
      <point x="340" y="-196"/>
      <point x="358" y="-186" type="curve"/>
      <point x="348" y="-164" type="line"/>
      <point x="334" y="-172"/>
      <point x="322" y="-176"/>
      <point x="306" y="-176" type="curve" smooth="yes"/>
      <point x="284" y="-176"/>
      <point x="268" y="-160"/>
      <point x="268" y="-134" type="curve" smooth="yes"/>
      <point x="268" y="-88"/>
      <point x="312" y="-40"/>
      <point x="382" y="0" type="curve"/>
      <point x="478" y="478" type="line"/>
      <point x="454" y="478" type="line"/>
      <point x="436" y="408" type="line"/>
      <point x="434" y="408" type="line"/>
      <point x="408" y="456"/>
      <point x="364" y="490"/>
      <point x="306" y="490" type="curve" smooth="yes"/>
      <point x="174" y="490"/>
      <point x="46" y="344"/>
      <point x="46" y="160" type="curve" smooth="yes"/>
      <point x="46" y="48"/>
      <point x="102" y="-12"/>
      <point x="186" y="-12" type="curve" smooth="yes"/>
      <point x="254" y="-12"/>
      <point x="318" y="28"/>
      <point x="368" y="80" type="curve"/>
      <point x="370" y="80" type="line"/>
      <point x="360" y="10" type="line"/>
      <point x="294" y="-24"/>
      <point x="238" y="-84"/>
      <point x="238" y="-140" type="curve" smooth="yes"/>
      <point x="238" y="-182"/>
      <point x="266" y="-202"/>
    </contour>
    <contour>
      <point x="188" y="14" type="curve" smooth="yes"/>
      <point x="118" y="14"/>
      <point x="74" y="64"/>
      <point x="74" y="166" type="curve" smooth="yes"/>
      <point x="74" y="314"/>
      <point x="184" y="464"/>
      <point x="304" y="464" type="curve" smooth="yes"/>
      <point x="352" y="464"/>
      <point x="392" y="440"/>
      <point x="430" y="374" type="curve"/>
      <point x="378" y="122" type="line"/>
      <point x="318" y="54"/>
      <point x="244" y="14"/>
    </contour>
    <contour>
      <point x="312" y="502" type="move" name="aboveLC"/>
    </contour>
  </outline>
</glyph>
<glyph name="bar" format="1">
  <advance width="212"/>
  <outline>
    <contour>
      <point x="100" y="-250" type="line"/>
      <point x="126" y="-250" type="line"/>
      <point x="126" y="750" type="line"/>
      <point x="100" y="750" type="line"/>
    </contour>
  </outline>
</glyph>
<glyph name="breveacute" format="1">
  <advance width="0"/>
  <outline>
    <contour>
      <point x="61" y="502" type="move" name="_aboveLC"/>
    </contour>
    <contour>
      <point x="84" y="664" type="line"/>
      <point x="190" y="772" type="line"/>
      <point x="154" y="772" type="line"/>
      <point x="56" y="664" type="line"/>
    </contour>
    <contour>
      <point x="70" y="576" type="curve" smooth="yes"/>
      <point x="146" y="576"/>
      <point x="184" y="638"/>
      <point x="202" y="690" type="curve"/>
      <point x="178" y="690" type="line"/>
      <point x="160" y="640"/>
      <point x="122" y="600"/>
      <point x="72" y="600" type="curve" smooth="yes"/>
      <point x="22" y="600"/>
      <point x="2" y="636"/>
      <point x="6" y="690" type="curve"/>
      <point x="-16" y="690" type="line"/>
      <point x="-20" y="638"/>
      <point x="-6" y="576"/>
    </contour>
  </outline>
</glyph>
<glyph name="brevecmb.cap" format="1">
  <advance width="0"/>
  <outline>
    <contour>
      <point x="136" y="682" type="move" name="_aboveUC"/>
    </contour>
    <contour>
      <point x="124" y="710" type="curve" smooth="yes"/>
      <point x="194" y="710"/>
      <point x="234" y="768"/>
      <point x="248" y="812" type="curve"/>
      <point x="224" y="812" type="line"/>
      <point x="210" y="776"/>
      <point x="178" y="736"/>
      <point x="128" y="736" type="curve" smooth="yes"/>
      <point x="76" y="736"/>
      <point x="58" y="774"/>
      <point x="60" y="812" type="curve"/>
      <point x="38" y="812" type="line"/>
      <point x="35" y="771"/>
      <point x="54" y="710"/>
    </contour>
  </outline>
</glyph>
<glyph name="brevecmb" format="1">
  <advance width="0"/>
  <outline>
    <contour>
      <point x="104" y="502" type="move" name="_aboveLC"/>
    </contour>
    <contour>
      <point x="114" y="570" type="curve" smooth="yes"/>
      <point x="216" y="570"/>
      <point x="270" y="654"/>
      <point x="288" y="716" type="curve"/>
      <point x="262" y="720" type="line"/>
      <point x="242" y="662"/>
      <point x="194" y="596"/>
      <point x="120" y="596" type="curve" smooth="yes"/>
      <point x="45" y="596"/>
      <point x="18" y="662"/>
      <point x="22" y="720" type="curve"/>
      <point x="-4" y="716" type="line"/>
      <point x="-6" y="654"/>
      <point x="16" y="570"/>
    </contour>
  </outline>
</glyph>
<glyph name="brevegrave.cap" format="1">
  <advance width="0"/>
  <outline>
    <contour>
      <point x="62" y="682" type="move" name="_aboveUC"/>
    </contour>
    <contour>
      <point x="98" y="796" type="line"/>
      <point x="42" y="890" type="line"/>
      <point x="12" y="890" type="line"/>
      <point x="74" y="796" type="line"/>
    </contour>
    <contour>
      <point x="52" y="710" type="curve" smooth="yes"/>
      <point x="122" y="710"/>
      <point x="164" y="766"/>
      <point x="176" y="808" type="curve"/>
      <point x="152" y="808" type="line"/>
      <point x="138" y="772"/>
      <point x="106" y="734"/>
      <point x="54" y="734" type="curve" smooth="yes"/>
      <point x="4" y="734"/>
      <point x="-14" y="770"/>
      <point x="-12" y="808" type="curve"/>
      <point x="-34" y="808" type="line"/>
      <point x="-37" y="767"/>
      <point x="-18" y="710"/>
    </contour>
  </outline>
</glyph>
<glyph name="brevegrave" format="1">
  <outline>
    <contour>
      <point x="114" y="570" type="curve" smooth="yes"/>
      <point x="216" y="570"/>
      <point x="270" y="654"/>
      <point x="288" y="716" type="curve"/>
      <point x="262" y="720" type="line"/>
      <point x="242" y="662"/>
      <point x="194" y="596"/>
      <point x="120" y="596" type="curve" smooth="yes"/>
      <point x="45" y="596"/>
      <point x="18" y="662"/>
      <point x="22" y="720" type="curve"/>
      <point x="-4" y="716" type="line"/>
      <point x="-6" y="654"/>
      <point x="16" y="570"/>
    </contour>
    <contour>
      <point x="148" y="695" type="line"/>
      <point x="166" y="708" type="line"/>
      <point x="94" y="816" type="line"/>
      <point x="72" y="798" type="line"/>
    </contour>
    <contour>
      <point x="104" y="502" type="move" name="_aboveLC"/>
    </contour>
  </outline>
</glyph>
<glyph name="brevehoi.cap" format="1">
  <outline>
    <contour>
      <point x="122" y="712" type="curve" smooth="yes"/>
      <point x="211" y="712"/>
      <point x="262" y="779"/>
      <point x="278" y="834" type="curve"/>
      <point x="252" y="838" type="line"/>
      <point x="234" y="786"/>
      <point x="194" y="738"/>
      <point x="128" y="738" type="curve" smooth="yes"/>
      <point x="61" y="738"/>
      <point x="37" y="786"/>
      <point x="40" y="838" type="curve"/>
      <point x="14" y="834" type="line"/>
      <point x="11" y="779"/>
      <point x="37" y="712"/>
    </contour>
    <contour>
      <point x="124" y="796" type="line"/>
      <point x="160" y="806"/>
      <point x="203" y="824"/>
      <point x="212" y="868" type="curve" smooth="yes"/>
      <point x="221" y="916"/>
      <point x="176" y="932"/>
      <point x="125" y="934" type="curve"/>
      <point x="116" y="908" type="line"/>
      <point x="163" y="906"/>
      <point x="187" y="896"/>
      <point x="181" y="864" type="curve" smooth="yes"/>
      <point x="176" y="840"/>
      <point x="150" y="828"/>
      <point x="118" y="820" type="curve"/>
    </contour>
    <contour>
      <point x="136" y="682" type="move" name="_aboveUC"/>
    </contour>
  </outline>
</glyph>
<glyph name="brevehoi" format="1">
  <outline>
    <contour>
      <point x="114" y="570" type="curve" smooth="yes"/>
      <point x="216" y="570"/>
      <point x="270" y="654"/>
      <point x="288" y="716" type="curve"/>
      <point x="262" y="720" type="line"/>
      <point x="242" y="662"/>
      <point x="194" y="596"/>
      <point x="120" y="596" type="curve" smooth="yes"/>
      <point x="45" y="596"/>
      <point x="18" y="662"/>
      <point x="22" y="720" type="curve"/>
      <point x="-4" y="716" type="line"/>
      <point x="-6" y="654"/>
      <point x="16" y="570"/>
    </contour>
    <contour>
      <point x="114" y="670" type="line"/>
      <point x="153" y="678"/>
      <point x="204" y="701"/>
      <point x="212" y="746" type="curve" smooth="yes"/>
      <point x="222" y="795"/>
      <point x="172" y="814"/>
      <point x="114" y="816" type="curve"/>
      <point x="107" y="790" type="line"/>
      <point x="162" y="788"/>
      <point x="188" y="774"/>
      <point x="182" y="742" type="curve" smooth="yes"/>
      <point x="177" y="718"/>
      <point x="147" y="702"/>
      <point x="110" y="694" type="curve"/>
    </contour>
    <contour>
      <point x="104" y="502" type="move" name="_aboveLC"/>
    </contour>
  </outline>
</glyph>
<glyph name="brevetilde.cap" format="1">
  <outline>
    <contour>
      <point x="124" y="712" type="curve" smooth="yes"/>
      <point x="211" y="712"/>
      <point x="261" y="768"/>
      <point x="276" y="814" type="curve"/>
      <point x="250" y="818" type="line"/>
      <point x="236" y="776"/>
      <point x="196" y="738"/>
      <point x="129" y="738" type="curve" smooth="yes"/>
      <point x="62" y="738"/>
      <point x="36" y="776"/>
      <point x="38" y="818" type="curve"/>
      <point x="12" y="814" type="line"/>
      <point x="9" y="768"/>
      <point x="37" y="712"/>
    </contour>
    <contour>
      <point x="219" y="840" type="curve" smooth="yes"/>
      <point x="273" y="840"/>
      <point x="293" y="884"/>
      <point x="301" y="916" type="curve"/>
      <point x="278" y="918" type="line"/>
      <point x="268" y="887"/>
      <point x="254" y="866"/>
      <point x="226" y="866" type="curve" smooth="yes"/>
      <point x="174" y="866"/>
      <point x="164" y="920"/>
      <point x="94" y="920" type="curve" smooth="yes"/>
      <point x="40" y="920"/>
      <point x="20" y="876"/>
      <point x="11" y="844" type="curve"/>
      <point x="35" y="842" type="line"/>
      <point x="45" y="873"/>
      <point x="59" y="894"/>
      <point x="87" y="894" type="curve" smooth="yes"/>
      <point x="139" y="894"/>
      <point x="149" y="840"/>
    </contour>
    <contour>
      <point x="136" y="682" type="move" name="_aboveUC"/>
    </contour>
  </outline>
</glyph>
<glyph name="brevetilde" format="1">
  <outline>
    <contour>
      <point x="114" y="570" type="curve" smooth="yes"/>
      <point x="208" y="570"/>
      <point x="255" y="628"/>
      <point x="270" y="672" type="curve"/>
      <point x="244" y="676" type="line"/>
      <point x="232" y="638"/>
      <point x="188" y="596"/>
      <point x="119" y="596" type="curve" smooth="yes"/>
      <point x="50" y="596"/>
      <point x="22" y="638"/>
      <point x="24" y="676" type="curve"/>
      <point x="-2" y="672" type="line"/>
      <point x="-5" y="628"/>
      <point x="20" y="570"/>
    </contour>
    <contour>
      <point x="210" y="706" type="curve" smooth="yes"/>
      <point x="254" y="706"/>
      <point x="274" y="745"/>
      <point x="282" y="776" type="curve"/>
      <point x="258" y="778" type="line"/>
      <point x="248" y="748"/>
      <point x="238" y="732"/>
      <point x="215" y="732" type="curve" smooth="yes"/>
      <point x="169" y="732"/>
      <point x="144" y="774"/>
      <point x="83" y="774" type="curve" smooth="yes"/>
      <point x="39" y="774"/>
      <point x="20" y="735"/>
      <point x="12" y="704" type="curve"/>
      <point x="35" y="702" type="line"/>
      <point x="45" y="732"/>
      <point x="55" y="748"/>
      <point x="78" y="748" type="curve" smooth="yes"/>
      <point x="123" y="748"/>
      <point x="150" y="706"/>
    </contour>
    <contour>
      <point x="104" y="502" type="move" name="_aboveLC"/>
    </contour>
  </outline>
</glyph>
<glyph name="caron.alt" format="1">
  <outline>
    <contour>
      <point x="28" y="548" type="line"/>
      <point x="50" y="548" type="line"/>
      <point x="88" y="704" type="line"/>
      <point x="96" y="752" type="line"/>
      <point x="68" y="752" type="line"/>
    </contour>
  </outline>
</glyph>
<glyph name="caron.alt" format="1">
  <advance width="0"/>
  <outline>
    <contour>
      <point x="28" y="548" type="line"/>
      <point x="50" y="548" type="line"/>
      <point x="88" y="704" type="line"/>
      <point x="96" y="752" type="line"/>
      <point x="68" y="752" type="line"/>
    </contour>
  </outline>
</glyph>
<glyph name="caroncmb.cap" format="1">
  <advance width="0"/>
  <outline>
    <contour>
      <point x="136" y="682" type="move" name="_aboveUC"/>
    </contour>
    <contour>
      <point x="114" y="710" type="line"/>
      <point x="138" y="710" type="line"/>
      <point x="250" y="812" type="line"/>
      <point x="220" y="812" type="line"/>
      <point x="130" y="736" type="line"/>
      <point x="126" y="736" type="line"/>
      <point x="68" y="812" type="line"/>
      <point x="42" y="812" type="line"/>
    </contour>
  </outline>
</glyph>
<glyph name="caroncmb" format="1">
  <outline>
    <contour>
      <point x="98" y="572" type="line"/>
      <point x="126" y="572" type="line"/>
      <point x="270" y="718" type="line"/>
      <point x="252" y="734" type="line"/>
      <point x="116" y="602" type="line"/>
      <point x="112" y="602" type="line"/>
      <point x="26" y="734" type="line"/>
      <point x="6" y="720" type="line"/>
    </contour>
    <contour>
      <point x="104" y="502" type="move" name="_aboveLC"/>
    </contour>
  </outline>
</glyph>
<glyph name="circumflexacute.cap" format="1">
  <advance width="0"/>
  <outline>
    <contour>
      <point x="62" y="682" type="move" name="_aboveUC"/>
    </contour>
    <contour>
      <point x="-18" y="710" type="line"/>
      <point x="66" y="780" type="line"/>
      <point x="70" y="780" type="line"/>
      <point x="126" y="710" type="line"/>
      <point x="152" y="710" type="line"/>
      <point x="82" y="806" type="line"/>
      <point x="58" y="806" type="line"/>
      <point x="-48" y="710" type="line"/>
    </contour>
    <contour>
      <point x="162" y="768" type="line"/>
      <point x="254" y="872" type="line"/>
      <point x="222" y="872" type="line"/>
      <point x="136" y="768" type="line"/>
    </contour>
  </outline>
</glyph>
<glyph name="circumflexacute" format="1">
  <outline>
    <contour>
      <point x="10" y="574" type="line"/>
      <point x="132" y="654" type="line"/>
      <point x="136" y="654" type="line"/>
      <point x="222" y="574" type="line"/>
      <point x="238" y="590" type="line"/>
      <point x="148" y="684" type="line"/>
      <point x="120" y="684" type="line"/>
      <point x="-2" y="592" type="line"/>
    </contour>
    <contour>
      <point x="227" y="640" type="line"/>
      <point x="346" y="740" type="line"/>
      <point x="324" y="762" type="line"/>
      <point x="210" y="658" type="line"/>
    </contour>
    <contour>
      <point x="104" y="502" type="move" name="_aboveLC"/>
    </contour>
  </outline>
</glyph>
<glyph name="circumflexbreve.cap" format="1">
  <outline>
    <contour>
      <point x="34" y="710" type="line"/>
      <point x="140" y="778" type="line"/>
      <point x="144" y="778" type="line"/>
      <point x="226" y="710" type="line"/>
      <point x="242" y="726" type="line"/>
      <point x="160" y="808" type="line"/>
      <point x="132" y="808" type="line"/>
      <point x="22" y="726" type="line"/>
    </contour>
    <contour>
      <point x="152" y="834" type="curve" smooth="yes"/>
      <point x="232" y="834"/>
      <point x="277" y="879"/>
      <point x="288" y="916" type="curve"/>
      <point x="262" y="920" type="line"/>
      <point x="251" y="888"/>
      <point x="217" y="860"/>
      <point x="156" y="860" type="curve" smooth="yes"/>
      <point x="95" y="860"/>
      <point x="69" y="888"/>
      <point x="70" y="920" type="curve"/>
      <point x="44" y="916" type="line"/>
      <point x="43" y="879"/>
      <point x="71" y="834"/>
    </contour>
    <contour>
      <point x="62" y="682" type="move" name="_aboveUC"/>
    </contour>
  </outline>
</glyph>
<glyph name="circumflexcmb.cap" format="1">
  <outline>
    <contour>
      <point x="14" y="710" type="line"/>
      <point x="146" y="812" type="line"/>
      <point x="150" y="812" type="line"/>
      <point x="244" y="712" type="line"/>
      <point x="260" y="726" type="line"/>
      <point x="164" y="840" type="line"/>
      <point x="136" y="840" type="line"/>
      <point x="0" y="726" type="line"/>
    </contour>
    <contour>
      <point x="136" y="683" type="move" name="_aboveUC"/>
    </contour>
  </outline>
</glyph>
<glyph name="circumflexcmb" format="1">
  <advance width="0"/>
  <outline>
    <contour>
      <point x="104" y="502" type="move" name="_aboveLC"/>
    </contour>
    <contour>
      <point x="144" y="710" type="move" name="aboveLC"/>
    </contour>
    <contour>
      <point x="8" y="570" type="line"/>
      <point x="36" y="570" type="line"/>
      <point x="132" y="670" type="line"/>
      <point x="136" y="670" type="line"/>
      <point x="192" y="570" type="line"/>
      <point x="216" y="570" type="line"/>
      <point x="148" y="704" type="line"/>
      <point x="130" y="704" type="line"/>
    </contour>
  </outline>
</glyph>
<glyph name="circumflexcmb.cap" format="1">
  <advance width="0"/>
  <outline>
    <contour>
      <point x="136" y="683" type="move" name="_aboveUC"/>
    </contour>
    <contour>
      <point x="14" y="710" type="line"/>
      <point x="146" y="812" type="line"/>
      <point x="150" y="812" type="line"/>
      <point x="244" y="712" type="line"/>
      <point x="260" y="726" type="line"/>
      <point x="164" y="840" type="line"/>
      <point x="136" y="840" type="line"/>
      <point x="0" y="726" type="line"/>
    </contour>
  </outline>
</glyph>
<glyph name="circumflexgrave.cap" format="1">
  <advance width="0"/>
  <outline>
    <contour>
      <point x="62" y="682" type="move" name="_aboveUC"/>
    </contour>
    <contour>
      <point x="-18" y="710" type="line"/>
      <point x="66" y="780" type="line"/>
      <point x="70" y="780" type="line"/>
      <point x="126" y="710" type="line"/>
      <point x="152" y="710" type="line"/>
      <point x="82" y="806" type="line"/>
      <point x="58" y="806" type="line"/>
      <point x="-48" y="710" type="line"/>
    </contour>
    <contour>
      <point x="180" y="768" type="line"/>
      <point x="202" y="768" type="line"/>
      <point x="148" y="872" type="line"/>
      <point x="118" y="872" type="line"/>
    </contour>
  </outline>
</glyph>
<glyph name="circumflexgrave" format="1">
  <advance width="0"/>
  <outline>
    <contour>
      <point x="104" y="502" type="move" name="_aboveLC"/>
    </contour>
    <contour>
      <point x="10" y="574" type="line"/>
      <point x="132" y="654" type="line"/>
      <point x="136" y="654" type="line"/>
      <point x="222" y="574" type="line"/>
      <point x="238" y="590" type="line"/>
      <point x="148" y="684" type="line"/>
      <point x="120" y="684" type="line"/>
      <point x="-2" y="592" type="line"/>
    </contour>
    <contour>
      <point x="26" y="640" type="line"/>
      <point x="46" y="656" type="line"/>
      <point x="-46" y="768" type="line"/>
      <point x="-72" y="748" type="line"/>
    </contour>
  </outline>
</glyph>
<glyph name="circumflexhoi.cap" format="1">
  <outline>
    <contour>
      <point x="34" y="710" type="line"/>
      <point x="144" y="778" type="line"/>
      <point x="148" y="778" type="line"/>
      <point x="226" y="710" type="line"/>
      <point x="242" y="724" type="line"/>
      <point x="162" y="808" type="line"/>
      <point x="134" y="808" type="line"/>
      <point x="22" y="726" type="line"/>
    </contour>
    <contour>
      <point x="235" y="760" type="line"/>
      <point x="270" y="770"/>
      <point x="313" y="787"/>
      <point x="319" y="830" type="curve" smooth="yes"/>
      <point x="329" y="878"/>
      <point x="282" y="894"/>
      <point x="229" y="896" type="curve"/>
      <point x="225" y="872" type="line"/>
      <point x="273" y="870"/>
      <point x="297" y="859"/>
      <point x="291" y="826" type="curve" smooth="yes"/>
      <point x="287" y="802"/>
      <point x="261" y="790"/>
      <point x="229" y="782" type="curve"/>
    </contour>
    <contour>
      <point x="136" y="682" type="move" name="_aboveUC"/>
    </contour>
  </outline>
</glyph>
<glyph name="circumflexhoi" format="1">
  <outline>
    <contour>
      <point x="10" y="574" type="line"/>
      <point x="132" y="654" type="line"/>
      <point x="136" y="654" type="line"/>
      <point x="222" y="574" type="line"/>
      <point x="238" y="590" type="line"/>
      <point x="148" y="684" type="line"/>
      <point x="120" y="684" type="line"/>
      <point x="-2" y="592" type="line"/>
    </contour>
    <contour>
      <point x="226" y="628" type="line"/>
      <point x="260" y="639"/>
      <point x="300" y="658"/>
      <point x="308" y="702" type="curve" smooth="yes"/>
      <point x="316" y="750"/>
      <point x="269" y="768"/>
      <point x="218" y="770" type="curve"/>
      <point x="214" y="746" type="line"/>
      <point x="262" y="744"/>
      <point x="284" y="730"/>
      <point x="278" y="698" type="curve" smooth="yes"/>
      <point x="274" y="674"/>
      <point x="250" y="660"/>
      <point x="218" y="650" type="curve"/>
    </contour>
    <contour>
      <point x="104" y="502" type="move" name="_aboveLC"/>
    </contour>
  </outline>
</glyph>
<glyph name="circumflexhoi.cap" format="1">
  <advance width="0"/>
  <outline>
    <contour>
      <point x="136" y="682" type="move" name="_aboveUC"/>
    </contour>
    <contour>
      <point x="34" y="710" type="line"/>
      <point x="144" y="778" type="line"/>
      <point x="148" y="778" type="line"/>
      <point x="226" y="710" type="line"/>
      <point x="242" y="724" type="line"/>
      <point x="162" y="808" type="line"/>
      <point x="134" y="808" type="line"/>
      <point x="22" y="726" type="line"/>
    </contour>
    <contour>
      <point x="235" y="760" type="line"/>
      <point x="270" y="770"/>
      <point x="313" y="787"/>
      <point x="319" y="830" type="curve" smooth="yes"/>
      <point x="329" y="878"/>
      <point x="282" y="894"/>
      <point x="229" y="896" type="curve"/>
      <point x="225" y="872" type="line"/>
      <point x="273" y="870"/>
      <point x="297" y="859"/>
      <point x="291" y="826" type="curve" smooth="yes"/>
      <point x="287" y="802"/>
      <point x="261" y="790"/>
      <point x="229" y="782" type="curve"/>
    </contour>
  </outline>
</glyph>
<glyph name="circumflextilde.cap" format="1">
  <outline>
    <contour>
      <point x="34" y="710" type="line"/>
      <point x="144" y="778" type="line"/>
      <point x="148" y="778" type="line"/>
      <point x="226" y="710" type="line"/>
      <point x="242" y="724" type="line"/>
      <point x="162" y="808" type="line"/>
      <point x="134" y="808" type="line"/>
      <point x="22" y="726" type="line"/>
    </contour>
    <contour>
      <point x="222" y="840" type="curve" smooth="yes"/>
      <point x="276" y="840"/>
      <point x="296" y="884"/>
      <point x="304" y="916" type="curve"/>
      <point x="280" y="918" type="line"/>
      <point x="270" y="887"/>
      <point x="256" y="866"/>
      <point x="228" y="866" type="curve" smooth="yes"/>
      <point x="176" y="866"/>
      <point x="166" y="920"/>
      <point x="96" y="920" type="curve" smooth="yes"/>
      <point x="42" y="920"/>
      <point x="22" y="876"/>
      <point x="16" y="844" type="curve"/>
      <point x="38" y="842" type="line"/>
      <point x="48" y="873"/>
      <point x="62" y="894"/>
      <point x="90" y="894" type="curve" smooth="yes"/>
      <point x="142" y="894"/>
      <point x="152" y="840"/>
    </contour>
    <contour>
      <point x="136" y="682" type="move" name="_aboveUC"/>
    </contour>
  </outline>
</glyph>
<glyph name="circumflextilde" format="1">
  <advance width="0"/>
  <outline>
    <contour>
      <point x="104" y="502" type="move" name="_aboveLC"/>
    </contour>
    <contour>
      <point x="10" y="574" type="line"/>
      <point x="132" y="654" type="line"/>
      <point x="136" y="654" type="line"/>
      <point x="222" y="574" type="line"/>
      <point x="238" y="590" type="line"/>
      <point x="148" y="684" type="line"/>
      <point x="120" y="684" type="line"/>
      <point x="-2" y="592" type="line"/>
    </contour>
    <contour>
      <point x="208" y="706" type="curve" smooth="yes"/>
      <point x="252" y="706"/>
      <point x="270" y="745"/>
      <point x="278" y="776" type="curve"/>
      <point x="254" y="778" type="line"/>
      <point x="244" y="748"/>
      <point x="235" y="732"/>
      <point x="212" y="732" type="curve" smooth="yes"/>
      <point x="166" y="732"/>
      <point x="141" y="774"/>
      <point x="80" y="774" type="curve" smooth="yes"/>
      <point x="36" y="774"/>
      <point x="16" y="735"/>
      <point x="8" y="704" type="curve"/>
      <point x="32" y="702" type="line"/>
      <point x="42" y="732"/>
      <point x="51" y="748"/>
      <point x="74" y="748" type="curve" smooth="yes"/>
      <point x="119" y="748"/>
      <point x="148" y="706"/>
    </contour>
  </outline>
</glyph>
<glyph name="commaabovecmb" format="1">
  <advance width="0"/>
  <outline>
    <contour>
      <point x="104" y="502" type="move" name="_aboveLC"/>
    </contour>
    <contour>
      <point x="80" y="542" type="line"/>
      <point x="150" y="570"/>
      <point x="176" y="612"/>
      <point x="176" y="660" type="curve" smooth="yes"/>
      <point x="176" y="688"/>
      <point x="162" y="712"/>
      <point x="142" y="712" type="curve" smooth="yes"/>
      <point x="118" y="712"/>
      <point x="102" y="700"/>
      <point x="102" y="674" type="curve" smooth="yes"/>
      <point x="102" y="656"/>
      <point x="116" y="642"/>
      <point x="132" y="642" type="curve" smooth="yes"/>
      <point x="142" y="642"/>
      <point x="154" y="644"/>
      <point x="166" y="658" type="curve"/>
      <point x="136" y="696" type="line"/>
      <point x="146" y="646" type="line"/>
      <point x="138" y="612"/>
      <point x="120" y="584"/>
      <point x="72" y="564" type="curve"/>
    </contour>
  </outline>
</glyph>
<glyph name="commabelowcmb.alt" format="1">
  <advance width="0"/>
  <outline>
    <contour>
      <point x="58" y="502" type="move" name="_aboveLC"/>
    </contour>
    <contour>
      <point x="82" y="542" type="curve"/>
      <point x="94" y="564" type="line"/>
      <point x="74" y="570"/>
      <point x="52" y="578"/>
      <point x="52" y="604" type="curve" smooth="yes"/>
      <point x="52" y="640"/>
      <point x="98" y="660"/>
      <point x="154" y="672" type="curve"/>
      <point x="150" y="692" type="line"/>
      <point x="88" y="682"/>
      <point x="26" y="654"/>
      <point x="26" y="598" type="curve" smooth="yes"/>
      <point x="26" y="568"/>
      <point x="52" y="552"/>
    </contour>
  </outline>
</glyph>
<glyph name="commabelowcmb.alt" format="1">
  <advance width="0"/>
  <outline>
    <contour>
      <point x="104" y="502" type="move" name="_aboveLC"/>
    </contour>
    <contour>
      <point x="154" y="582" type="curve"/>
      <point x="164" y="606" type="line"/>
      <point x="119" y="610"/>
      <point x="96" y="622"/>
      <point x="96" y="652" type="curve" smooth="yes"/>
      <point x="96" y="685"/>
      <point x="138" y="710"/>
      <point x="220" y="712" type="curve"/>
      <point x="218" y="736" type="line"/>
      <point x="128" y="734"/>
      <point x="66" y="701"/>
      <point x="66" y="644" type="curve" smooth="yes"/>
      <point x="66" y="609"/>
      <point x="82" y="592"/>
    </contour>
  </outline>
</glyph>
<glyph name="copyright" format="1">
  <advance width="660"/>
  <outline>
    <contour>
      <point x="298" y="-12" type="curve" smooth="yes"/>
      <point x="514" y="-12"/>
      <point x="652" y="190"/>
      <point x="652" y="376" type="curve" smooth="yes"/>
      <point x="652" y="540"/>
      <point x="548" y="652"/>
      <point x="394" y="652" type="curve" smooth="yes"/>
      <point x="178" y="652"/>
      <point x="40" y="450"/>
      <point x="40" y="264" type="curve" smooth="yes"/>
      <point x="40" y="100"/>
      <point x="144" y="-12"/>
    </contour>
    <contour>
      <point x="300" y="12" type="curve" smooth="yes"/>
      <point x="158" y="12"/>
      <point x="66" y="112"/>
      <point x="66" y="268" type="curve" smooth="yes"/>
      <point x="66" y="434"/>
      <point x="194" y="628"/>
      <point x="392" y="628" type="curve" smooth="yes"/>
      <point x="534" y="628"/>
      <point x="626" y="528"/>
      <point x="626" y="372" type="curve" smooth="yes"/>
      <point x="626" y="206"/>
      <point x="498" y="12"/>
    </contour>
    <contour>
      <point x="322" y="124" type="curve" smooth="yes"/>
      <point x="380" y="124"/>
      <point x="416" y="148"/>
      <point x="456" y="176" type="curve"/>
      <point x="442" y="198" type="line"/>
      <point x="406" y="174"/>
      <point x="370" y="150"/>
      <point x="324" y="150" type="curve" smooth="yes"/>
      <point x="256" y="150"/>
      <point x="212" y="192"/>
      <point x="212" y="278" type="curve" smooth="yes"/>
      <point x="212" y="398"/>
      <point x="304" y="484"/>
      <point x="380" y="484" type="curve" smooth="yes"/>
      <point x="416" y="484"/>
      <point x="436" y="468"/>
      <point x="456" y="442" type="curve"/>
      <point x="476" y="460" type="line"/>
      <point x="454" y="490"/>
      <point x="430" y="510"/>
      <point x="382" y="510" type="curve" smooth="yes"/>
      <point x="292" y="510"/>
      <point x="184" y="420"/>
      <point x="184" y="272" type="curve" smooth="yes"/>
      <point x="184" y="172"/>
      <point x="242" y="124"/>
    </contour>
  </outline>
</glyph>
<glyph name="d.sups" format="1">
  <advance width="352"/>
  <outline>
    <contour>
      <point x="324" y="684" type="line"/>
      <point x="320" y="684" type="line"/>
      <point x="302" y="720"/>
      <point x="272" y="734"/>
      <point x="240" y="734" type="curve" smooth="yes"/>
      <point x="150" y="734"/>
      <point x="64" y="638"/>
      <point x="64" y="518" type="curve" smooth="yes"/>
      <point x="64" y="442"/>
      <point x="102" y="402"/>
      <point x="158" y="402" type="curve" smooth="yes"/>
      <point x="204" y="402"/>
      <point x="244" y="426"/>
      <point x="278" y="462" type="curve"/>
      <point x="282" y="462" type="line"/>
      <point x="272" y="410" type="line"/>
      <point x="294" y="410" type="line"/>
      <point x="386" y="878" type="line"/>
      <point x="360" y="878" type="line"/>
      <point x="334" y="748" type="line"/>
    </contour>
    <contour>
      <point x="160" y="426" type="curve" smooth="yes"/>
      <point x="120" y="426"/>
      <point x="90" y="456"/>
      <point x="90" y="522" type="curve" smooth="yes"/>
      <point x="90" y="616"/>
      <point x="164" y="710"/>
      <point x="238" y="710" type="curve" smooth="yes"/>
      <point x="266" y="710"/>
      <point x="292" y="696"/>
      <point x="316" y="652" type="curve"/>
      <point x="286" y="500" type="line"/>
      <point x="248" y="458"/>
      <point x="200" y="426"/>
    </contour>
  </outline>
</glyph>
<glyph name="dblgravecmb.cap" format="1">
  <outline>
    <contour>
      <point x="42" y="708" type="line"/>
      <point x="64" y="716" type="line"/>
      <point x="4" y="868" type="line"/>
      <point x="-25" y="854" type="line"/>
    </contour>
    <contour>
      <point x="180" y="708" type="line"/>
      <point x="202" y="716" type="line"/>
      <point x="142" y="868" type="line"/>
      <point x="113" y="854" type="line"/>
    </contour>
    <contour>
      <point x="136" y="682" type="move" name="_aboveUC"/>
    </contour>
  </outline>
</glyph>
<glyph name="dblgravecmb" format="1">
  <advance width="0"/>
  <outline>
    <contour>
      <point x="104" y="502" type="move" name="_aboveLC"/>
    </contour>
    <contour>
      <point x="28" y="568" type="line"/>
      <point x="50" y="576" type="line"/>
      <point x="-6" y="748" type="line"/>
      <point x="-36" y="734" type="line"/>
    </contour>
    <contour>
      <point x="156" y="568" type="line"/>
      <point x="178" y="576" type="line"/>
      <point x="122" y="748" type="line"/>
      <point x="92" y="734" type="line"/>
    </contour>
  </outline>
</glyph>
<glyph name="dblgravecmb.cap" format="1">
  <advance width="0"/>
  <outline>
    <contour>
      <point x="136" y="682" type="move" name="_aboveUC"/>
    </contour>
    <contour>
      <point x="42" y="708" type="line"/>
      <point x="64" y="716" type="line"/>
      <point x="4" y="868" type="line"/>
      <point x="-25" y="854" type="line"/>
    </contour>
    <contour>
      <point x="180" y="708" type="line"/>
      <point x="202" y="716" type="line"/>
      <point x="142" y="868" type="line"/>
      <point x="113" y="854" type="line"/>
    </contour>
  </outline>
</glyph>
<glyph name="dieresisacute.cap" format="1">
  <advance width="0"/>
  <outline>
    <contour>
      <point x="136" y="682" type="move" name="_aboveUC"/>
    </contour>
    <contour>
      <point x="48" y="726" type="curve" smooth="yes"/>
      <point x="64" y="726"/>
      <point x="80" y="742"/>
      <point x="80" y="762" type="curve" smooth="yes"/>
      <point x="80" y="780"/>
      <point x="70" y="790"/>
      <point x="54" y="790" type="curve" smooth="yes"/>
      <point x="38" y="790"/>
      <point x="22" y="774"/>
      <point x="22" y="752" type="curve" smooth="yes"/>
      <point x="22" y="736"/>
      <point x="32" y="726"/>
    </contour>
    <contour>
      <point x="214" y="726" type="curve" smooth="yes"/>
      <point x="230" y="726"/>
      <point x="246" y="742"/>
      <point x="246" y="762" type="curve" smooth="yes"/>
      <point x="246" y="780"/>
      <point x="236" y="790"/>
      <point x="220" y="790" type="curve" smooth="yes"/>
      <point x="204" y="790"/>
      <point x="188" y="774"/>
      <point x="188" y="752" type="curve" smooth="yes"/>
      <point x="188" y="736"/>
      <point x="198" y="726"/>
    </contour>
    <contour>
      <point x="136" y="826" type="line"/>
      <point x="252" y="910" type="line"/>
      <point x="234" y="932" type="line"/>
      <point x="122" y="842" type="line"/>
    </contour>
  </outline>
</glyph>
<glyph name="dieresiscaron.cap" format="1">
  <outline>
    <contour>
      <point x="48" y="726" type="curve" smooth="yes"/>
      <point x="64" y="726"/>
      <point x="80" y="742"/>
      <point x="80" y="762" type="curve" smooth="yes"/>
      <point x="80" y="780"/>
      <point x="70" y="790"/>
      <point x="54" y="790" type="curve" smooth="yes"/>
      <point x="38" y="790"/>
      <point x="22" y="774"/>
      <point x="22" y="752" type="curve" smooth="yes"/>
      <point x="22" y="736"/>
      <point x="32" y="726"/>
    </contour>
    <contour>
      <point x="214" y="726" type="curve" smooth="yes"/>
      <point x="230" y="726"/>
      <point x="246" y="742"/>
      <point x="246" y="762" type="curve" smooth="yes"/>
      <point x="246" y="780"/>
      <point x="236" y="790"/>
      <point x="220" y="790" type="curve" smooth="yes"/>
      <point x="204" y="790"/>
      <point x="188" y="774"/>
      <point x="188" y="752" type="curve" smooth="yes"/>
      <point x="188" y="736"/>
      <point x="198" y="726"/>
    </contour>
    <contour>
      <point x="134" y="826" type="line"/>
      <point x="162" y="826" type="line"/>
      <point x="274" y="908" type="line"/>
      <point x="262" y="924" type="line"/>
      <point x="152" y="856" type="line"/>
      <point x="148" y="856" type="line"/>
      <point x="70" y="924" type="line"/>
      <point x="54" y="910" type="line"/>
    </contour>
    <contour>
      <point x="136" y="682" type="move" name="_aboveUC"/>
    </contour>
  </outline>
</glyph>
<glyph name="dieresiscaron" format="1">
  <outline>
    <contour>
      <point x="126" y="706" type="line"/>
      <point x="154" y="706" type="line"/>
      <point x="276" y="798" type="line"/>
      <point x="264" y="816" type="line"/>
      <point x="142" y="736" type="line"/>
      <point x="138" y="736" type="line"/>
      <point x="52" y="816" type="line"/>
      <point x="36" y="800" type="line"/>
    </contour>
    <contour>
      <point x="40" y="602" type="curve" smooth="yes"/>
      <point x="56" y="602"/>
      <point x="72" y="618"/>
      <point x="72" y="638" type="curve" smooth="yes"/>
      <point x="72" y="656"/>
      <point x="62" y="666"/>
      <point x="46" y="666" type="curve" smooth="yes"/>
      <point x="30" y="666"/>
      <point x="14" y="650"/>
      <point x="14" y="628" type="curve" smooth="yes"/>
      <point x="14" y="612"/>
      <point x="24" y="602"/>
    </contour>
    <contour>
      <point x="206" y="602" type="curve" smooth="yes"/>
      <point x="222" y="602"/>
      <point x="238" y="618"/>
      <point x="238" y="638" type="curve" smooth="yes"/>
      <point x="238" y="656"/>
      <point x="228" y="666"/>
      <point x="212" y="666" type="curve" smooth="yes"/>
      <point x="196" y="666"/>
      <point x="180" y="650"/>
      <point x="180" y="628" type="curve" smooth="yes"/>
      <point x="180" y="612"/>
      <point x="190" y="602"/>
    </contour>
    <contour>
      <point x="104" y="502" type="move" name="_aboveLC"/>
    </contour>
  </outline>
</glyph>
<glyph name="dieresiscmb.cap" format="1">
  <outline>
    <contour>
      <point x="48" y="726" type="curve" smooth="yes"/>
      <point x="64" y="726"/>
      <point x="80" y="742"/>
      <point x="80" y="762" type="curve" smooth="yes"/>
      <point x="80" y="780"/>
      <point x="70" y="790"/>
      <point x="54" y="790" type="curve" smooth="yes"/>
      <point x="38" y="790"/>
      <point x="22" y="774"/>
      <point x="22" y="752" type="curve" smooth="yes"/>
      <point x="22" y="736"/>
      <point x="32" y="726"/>
    </contour>
    <contour>
      <point x="214" y="726" type="curve" smooth="yes"/>
      <point x="230" y="726"/>
      <point x="246" y="742"/>
      <point x="246" y="762" type="curve" smooth="yes"/>
      <point x="246" y="780"/>
      <point x="236" y="790"/>
      <point x="220" y="790" type="curve" smooth="yes"/>
      <point x="204" y="790"/>
      <point x="188" y="774"/>
      <point x="188" y="752" type="curve" smooth="yes"/>
      <point x="188" y="736"/>
      <point x="198" y="726"/>
    </contour>
    <contour>
      <point x="136" y="682" type="move" name="_aboveUC"/>
    </contour>
  </outline>
</glyph>
<glyph name="dieresiscmb" format="1">
  <outline>
    <contour>
      <point x="40" y="602" type="curve" smooth="yes"/>
      <point x="56" y="602"/>
      <point x="72" y="618"/>
      <point x="72" y="638" type="curve" smooth="yes"/>
      <point x="72" y="656"/>
      <point x="62" y="666"/>
      <point x="46" y="666" type="curve" smooth="yes"/>
      <point x="30" y="666"/>
      <point x="14" y="650"/>
      <point x="14" y="628" type="curve" smooth="yes"/>
      <point x="14" y="612"/>
      <point x="24" y="602"/>
    </contour>
    <contour>
      <point x="206" y="602" type="curve" smooth="yes"/>
      <point x="222" y="602"/>
      <point x="238" y="618"/>
      <point x="238" y="638" type="curve" smooth="yes"/>
      <point x="238" y="656"/>
      <point x="228" y="666"/>
      <point x="212" y="666" type="curve" smooth="yes"/>
      <point x="196" y="666"/>
      <point x="180" y="650"/>
      <point x="180" y="628" type="curve" smooth="yes"/>
      <point x="180" y="612"/>
      <point x="190" y="602"/>
    </contour>
    <contour>
      <point x="104" y="502" type="move" name="_aboveLC"/>
    </contour>
    <contour>
      <point x="136" y="680" type="move" name="aboveLC"/>
    </contour>
  </outline>
</glyph>
<glyph name="dieresismacron.cap" format="1">
  <outline>
    <contour>
      <point x="48" y="726" type="curve" smooth="yes"/>
      <point x="64" y="726"/>
      <point x="80" y="742"/>
      <point x="80" y="762" type="curve" smooth="yes"/>
      <point x="80" y="780"/>
      <point x="70" y="790"/>
      <point x="54" y="790" type="curve" smooth="yes"/>
      <point x="38" y="790"/>
      <point x="22" y="774"/>
      <point x="22" y="752" type="curve" smooth="yes"/>
      <point x="22" y="736"/>
      <point x="32" y="726"/>
    </contour>
    <contour>
      <point x="214" y="726" type="curve" smooth="yes"/>
      <point x="230" y="726"/>
      <point x="246" y="742"/>
      <point x="246" y="762" type="curve" smooth="yes"/>
      <point x="246" y="780"/>
      <point x="236" y="790"/>
      <point x="220" y="790" type="curve" smooth="yes"/>
      <point x="204" y="790"/>
      <point x="188" y="774"/>
      <point x="188" y="752" type="curve" smooth="yes"/>
      <point x="188" y="736"/>
      <point x="198" y="726"/>
    </contour>
    <contour>
      <point x="36" y="852" type="line"/>
      <point x="266" y="852" type="line"/>
      <point x="272" y="878" type="line"/>
      <point x="42" y="878" type="line"/>
    </contour>
    <contour>
      <point x="136" y="682" type="move" name="_aboveUC"/>
    </contour>
  </outline>
</glyph>
<glyph name="dieresismacron" format="1">
  <outline>
    <contour>
      <point x="40" y="602" type="curve" smooth="yes"/>
      <point x="56" y="602"/>
      <point x="72" y="618"/>
      <point x="72" y="638" type="curve" smooth="yes"/>
      <point x="72" y="656"/>
      <point x="62" y="666"/>
      <point x="46" y="666" type="curve" smooth="yes"/>
      <point x="30" y="666"/>
      <point x="14" y="650"/>
      <point x="14" y="628" type="curve" smooth="yes"/>
      <point x="14" y="612"/>
      <point x="24" y="602"/>
    </contour>
    <contour>
      <point x="206" y="602" type="curve" smooth="yes"/>
      <point x="222" y="602"/>
      <point x="238" y="618"/>
      <point x="238" y="638" type="curve" smooth="yes"/>
      <point x="238" y="656"/>
      <point x="228" y="666"/>
      <point x="212" y="666" type="curve" smooth="yes"/>
      <point x="196" y="666"/>
      <point x="180" y="650"/>
      <point x="180" y="628" type="curve" smooth="yes"/>
      <point x="180" y="612"/>
      <point x="190" y="602"/>
    </contour>
    <contour>
      <point x="34" y="744" type="line"/>
      <point x="264" y="744" type="line"/>
      <point x="270" y="770" type="line"/>
      <point x="40" y="770" type="line"/>
    </contour>
    <contour>
      <point x="104" y="502" type="move" name="_aboveLC"/>
    </contour>
  </outline>
</glyph>
<glyph name="dong" format="1">
  <advance width="456"/>
  <outline>
    <contour>
      <point x="190" y="106" type="curve" smooth="yes"/>
      <point x="238" y="106"/>
      <point x="288" y="134"/>
      <point x="326" y="166" type="curve"/>
      <point x="328" y="166" type="line"/>
      <point x="320" y="116" type="line"/>
      <point x="344" y="116" type="line"/>
      <point x="458" y="676" type="line"/>
      <point x="430" y="676" type="line"/>
      <point x="396" y="514" type="line"/>
      <point x="378" y="416" type="line"/>
      <point x="358" y="446"/>
      <point x="334" y="472"/>
      <point x="286" y="472" type="curve" smooth="yes"/>
      <point x="182" y="472"/>
      <point x="78" y="370"/>
      <point x="78" y="234" type="curve" smooth="yes"/>
      <point x="78" y="160"/>
      <point x="120" y="106"/>
    </contour>
    <contour>
      <point x="192" y="132" type="curve" smooth="yes"/>
      <point x="134" y="132"/>
      <point x="106" y="176"/>
      <point x="106" y="240" type="curve" smooth="yes"/>
      <point x="106" y="354"/>
      <point x="198" y="448"/>
      <point x="284" y="448" type="curve" smooth="yes"/>
      <point x="318" y="448"/>
      <point x="350" y="428"/>
      <point x="370" y="386" type="curve"/>
      <point x="334" y="200" type="line"/>
      <point x="282" y="156"/>
      <point x="238" y="132"/>
    </contour>
    <contour>
      <point x="276" y="566" type="line"/>
      <point x="434" y="566" type="line"/>
      <point x="514" y="570" type="line"/>
      <point x="520" y="592" type="line"/>
      <point x="282" y="592" type="line"/>
    </contour>
    <contour>
      <point x="36" y="0" type="line"/>
      <point x="350" y="0" type="line"/>
      <point x="356" y="26" type="line"/>
      <point x="42" y="26" type="line"/>
    </contour>
  </outline>
</glyph>
<glyph name="dotaccentcmb" format="1">
  <advance width="0"/>
  <outline>
    <contour>
      <point x="104" y="502" type="move" name="_aboveLC"/>
    </contour>
    <contour>
      <point x="136" y="680" type="move" name="aboveLC"/>
    </contour>
    <contour>
      <point x="120" y="600" type="curve" smooth="yes"/>
      <point x="138" y="600"/>
      <point x="156" y="616"/>
      <point x="156" y="638" type="curve" smooth="yes"/>
      <point x="156" y="656"/>
      <point x="144" y="668"/>
      <point x="128" y="668" type="curve" smooth="yes"/>
      <point x="110" y="668"/>
      <point x="92" y="652"/>
      <point x="92" y="628" type="curve" smooth="yes"/>
      <point x="92" y="612"/>
      <point x="104" y="600"/>
    </contour>
  </outline>
</glyph>
<glyph name="dotlessi" format="1">
  <advance width="214"/>
  <outline>
    <contour>
      <point x="58" y="0" type="move" name="ogonekLC"/>
    </contour>
    <contour>
      <point x="166" y="502" type="move" name="aboveLC"/>
    </contour>
    <contour>
      <point x="66" y="-22" type="move" name="belowLC"/>
    </contour>
    <contour>
      <point x="44" y="0" type="line"/>
      <point x="72" y="0" type="line"/>
      <point x="168" y="478" type="line"/>
      <point x="140" y="478" type="line"/>
    </contour>
  </outline>
</glyph>
<glyph name="e" format="1">
  <advance width="468"/>
  <outline>
    <contour>
      <point x="282" y="0" type="move" name="ogonekLC"/>
    </contour>
    <contour>
      <point x="294" y="502" type="move" name="aboveLC"/>
    </contour>
    <contour>
      <point x="212" y="-22" type="move" name="belowLC"/>
    </contour>
    <contour>
      <point x="44" y="184" type="curve" smooth="yes"/>
      <point x="44" y="56"/>
      <point x="114" y="-12"/>
      <point x="224" y="-12" type="curve" smooth="yes"/>
      <point x="276" y="-12"/>
      <point x="326" y="12"/>
      <point x="364" y="40" type="curve"/>
      <point x="350" y="62" type="line"/>
      <point x="314" y="36"/>
      <point x="270" y="14"/>
      <point x="226" y="14" type="curve" smooth="yes"/>
      <point x="126" y="14"/>
      <point x="49" y="82"/>
      <point x="78" y="242" type="curve"/>
      <point x="420" y="242" type="line"/>
      <point x="426" y="262"/>
      <point x="432" y="290"/>
      <point x="432" y="322" type="curve" smooth="yes"/>
      <point x="432" y="420"/>
      <point x="392" y="490"/>
      <point x="290" y="490" type="curve" smooth="yes"/>
      <point x="168" y="490"/>
      <point x="44" y="366"/>
    </contour>
    <contour>
      <point x="84" y="268" type="line"/>
      <point x="110" y="382"/>
      <point x="198" y="464"/>
      <point x="288" y="464" type="curve" smooth="yes"/>
      <point x="374" y="464"/>
      <point x="404" y="396"/>
      <point x="404" y="328" type="curve" smooth="yes"/>
      <point x="404" y="306"/>
      <point x="402" y="288"/>
      <point x="398" y="268" type="curve"/>
    </contour>
  </outline>
</glyph>
<glyph name="e.sups" format="1">
  <advance width="316"/>
  <outline>
    <contour>
      <point x="64" y="534" type="curve" smooth="yes"/>
      <point x="64" y="448"/>
      <point x="110" y="402"/>
      <point x="184" y="402" type="curve" smooth="yes"/>
      <point x="226" y="402"/>
      <point x="260" y="420"/>
      <point x="284" y="434" type="curve"/>
      <point x="272" y="456" type="line"/>
      <point x="250" y="442"/>
      <point x="222" y="426"/>
      <point x="186" y="426" type="curve" smooth="yes"/>
      <point x="114" y="426"/>
      <point x="80" y="482"/>
      <point x="94" y="566" type="curve"/>
      <point x="320" y="566" type="line"/>
      <point x="326" y="582"/>
      <point x="330" y="600"/>
      <point x="330" y="622" type="curve" smooth="yes"/>
      <point x="330" y="676"/>
      <point x="308" y="734"/>
      <point x="230" y="734" type="curve" smooth="yes"/>
      <point x="148" y="734"/>
      <point x="64" y="652"/>
    </contour>
    <contour>
      <point x="100" y="590" type="line"/>
      <point x="116" y="660"/>
      <point x="176" y="710"/>
      <point x="228" y="710" type="curve" smooth="yes"/>
      <point x="282" y="710"/>
      <point x="304" y="668"/>
      <point x="304" y="624" type="curve" smooth="yes"/>
      <point x="304" y="614"/>
      <point x="304" y="604"/>
      <point x="300" y="590" type="curve"/>
    </contour>
  </outline>
</glyph>
<glyph name="eacute.sups" format="1">
  <advance width="316"/>
  <outline>
    <contour>
      <point x="210" y="803" type="line"/>
      <point x="223" y="788" type="line"/>
      <point x="334" y="880" type="line"/>
      <point x="316" y="900" type="line"/>
    </contour>
    <component base="e.sups"/>
  </outline>
</glyph>
<glyph name="egrave.sups" format="1">
  <advance width="316"/>
  <outline>
    <contour>
      <point x="246" y="786" type="line"/>
      <point x="268" y="786" type="line"/>
      <point x="228" y="876" type="line"/>
      <point x="198" y="876" type="line"/>
    </contour>
    <component base="e.sups"/>
  </outline>
</glyph>
<glyph name="egrave.sups" format="1">
  <advance width="316"/>
  <outline>
    <contour>
      <point x="266" y="784" type="line"/>
      <point x="282" y="794" type="line"/>
      <point x="208" y="906" type="line"/>
      <point x="186" y="890" type="line"/>
    </contour>
    <component base="e.sups"/>
  </outline>
</glyph>
<glyph name="eogonek" format="1">
  <advance width="468"/>
  <outline>
    <contour>
      <point x="294" y="502" type="move" name="aboveLC"/>
    </contour>
    <contour>
      <point x="186" y="-140" type="curve" smooth="yes"/>
      <point x="186" y="-182"/>
      <point x="214" y="-202"/>
      <point x="252" y="-202" type="curve" smooth="yes"/>
      <point x="268" y="-202"/>
      <point x="288" y="-196"/>
      <point x="306" y="-186" type="curve"/>
      <point x="296" y="-164" type="line"/>
      <point x="282" y="-172"/>
      <point x="270" y="-176"/>
      <point x="254" y="-176" type="curve" smooth="yes"/>
      <point x="232" y="-176"/>
      <point x="216" y="-160"/>
      <point x="216" y="-134" type="curve" smooth="yes"/>
      <point x="216" y="-88"/>
      <point x="258" y="-32"/>
      <point x="364" y="40" type="curve"/>
      <point x="350" y="62" type="line"/>
      <point x="314" y="36"/>
      <point x="270" y="14"/>
      <point x="226" y="14" type="curve" smooth="yes"/>
      <point x="126" y="14"/>
      <point x="49" y="82"/>
      <point x="78" y="242" type="curve"/>
      <point x="420" y="242" type="line"/>
      <point x="426" y="262"/>
      <point x="432" y="290"/>
      <point x="432" y="322" type="curve" smooth="yes"/>
      <point x="432" y="420"/>
      <point x="392" y="490"/>
      <point x="290" y="490" type="curve" smooth="yes"/>
      <point x="168" y="490"/>
      <point x="44" y="366"/>
      <point x="44" y="184" type="curve" smooth="yes"/>
      <point x="44" y="56"/>
      <point x="114" y="-12"/>
      <point x="224" y="-12" type="curve" smooth="yes"/>
      <point x="236" y="-12"/>
      <point x="254" y="-10"/>
      <point x="270" y="-6" type="curve"/>
      <point x="232" y="-36"/>
      <point x="186" y="-88"/>
    </contour>
    <contour>
      <point x="84" y="268" type="line"/>
      <point x="110" y="382"/>
      <point x="198" y="464"/>
      <point x="288" y="464" type="curve" smooth="yes"/>
      <point x="374" y="464"/>
      <point x="404" y="396"/>
      <point x="404" y="328" type="curve" smooth="yes"/>
      <point x="404" y="306"/>
      <point x="402" y="288"/>
      <point x="398" y="268" type="curve"/>
    </contour>
  </outline>
</glyph>
<glyph name="f.sups" format="1">
  <advance width="172"/>
  <outline>
    <contour>
      <point x="66" y="270" type="line"/>
      <point x="92" y="270" type="line"/>
      <point x="170" y="662" type="line" smooth="yes"/>
      <point x="178" y="700"/>
      <point x="202" y="728"/>
      <point x="232" y="728" type="curve" smooth="yes"/>
      <point x="250" y="728"/>
      <point x="262" y="722"/>
      <point x="272" y="716" type="curve"/>
      <point x="284" y="738" type="line"/>
      <point x="266" y="748"/>
      <point x="252" y="752"/>
      <point x="234" y="752" type="curve" smooth="yes"/>
      <point x="192" y="752"/>
      <point x="156" y="722"/>
      <point x="144" y="658" type="curve" smooth="yes"/>
    </contour>
    <contour>
      <point x="82" y="562" type="line"/>
      <point x="226" y="562" type="line"/>
      <point x="230" y="586" type="line"/>
      <point x="130" y="586" type="line"/>
      <point x="86" y="584" type="line"/>
    </contour>
  </outline>
</glyph>
<glyph name="fisheye" format="1">
  <advance width="910"/>
  <outline>
    <contour>
      <point x="475" y="-75" type="curve" smooth="yes"/>
      <point x="696" y="-75"/>
      <point x="895" y="76"/>
      <point x="895" y="350" type="curve" smooth="yes"/>
      <point x="895" y="618"/>
      <point x="696" y="775"/>
      <point x="475" y="775" type="curve" smooth="yes"/>
      <point x="254" y="775"/>
      <point x="55" y="618"/>
      <point x="55" y="350" type="curve" smooth="yes"/>
      <point x="55" y="76"/>
      <point x="254" y="-75"/>
    </contour>
    <contour>
      <point x="475" y="-45" type="curve" smooth="yes"/>
      <point x="284" y="-45"/>
      <point x="90" y="90"/>
      <point x="90" y="350" type="curve" smooth="yes"/>
      <point x="90" y="610"/>
      <point x="284" y="745"/>
      <point x="475" y="745" type="curve" smooth="yes"/>
      <point x="669" y="745"/>
      <point x="860" y="610"/>
      <point x="860" y="350" type="curve" smooth="yes"/>
      <point x="860" y="90"/>
      <point x="669" y="-45"/>
    </contour>
    <contour>
      <point x="475" y="60" type="curve" smooth="yes"/>
      <point x="623" y="60"/>
      <point x="760" y="167"/>
      <point x="760" y="350" type="curve" smooth="yes"/>
      <point x="760" y="529"/>
      <point x="623" y="640"/>
      <point x="475" y="640" type="curve" smooth="yes"/>
      <point x="327" y="640"/>
      <point x="190" y="529"/>
      <point x="190" y="350" type="curve" smooth="yes"/>
      <point x="190" y="167"/>
      <point x="327" y="60"/>
    </contour>
  </outline>
</glyph>
<glyph name="four" format="1">
  <advance width="456"/>
  <outline>
    <contour>
      <point x="276" y="0" type="line"/>
      <point x="315" y="194" type="line"/>
      <point x="406" y="194" type="line"/>
      <point x="412" y="220" type="line"/>
      <point x="320" y="220" type="line"/>
      <point x="404" y="640" type="line"/>
      <point x="384" y="640" type="line"/>
      <point x="10" y="210" type="line"/>
      <point x="8" y="194" type="line"/>
      <point x="287" y="194" type="line"/>
      <point x="248" y="0" type="line"/>
    </contour>
    <contour>
      <point x="54" y="220" type="line"/>
      <point x="286" y="490" type="line" smooth="yes"/>
      <point x="310" y="518"/>
      <point x="338" y="550"/>
      <point x="366" y="586" type="curve"/>
      <point x="370" y="586" type="line"/>
      <point x="360" y="544"/>
      <point x="348" y="501"/>
      <point x="342" y="470" type="curve" smooth="yes"/>
      <point x="292" y="220" type="line"/>
    </contour>
  </outline>
</glyph>
<glyph name="gravecmb.cap" format="1">
  <advance width="0"/>
  <outline>
    <contour>
      <point x="136" y="682" type="move" name="_aboveUC"/>
    </contour>
    <contour>
      <point x="146" y="706" type="line"/>
      <point x="162" y="720" type="line"/>
      <point x="60" y="848" type="line"/>
      <point x="36" y="828" type="line"/>
    </contour>
  </outline>
</glyph>
<glyph name="gravecmb" format="1">
  <advance width="0"/>
  <outline>
    <contour>
      <point x="104" y="502" type="move" name="_aboveLC"/>
    </contour>
    <contour>
      <point x="150" y="570" type="line"/>
      <point x="170" y="584" type="line"/>
      <point x="62" y="748" type="line"/>
      <point x="36" y="730" type="line"/>
    </contour>
  </outline>
</glyph>
<glyph name="h.sups" format="1">
  <advance width="340"/>
  <outline>
    <contour>
      <point x="66" y="410" type="line"/>
      <point x="92" y="410" type="line"/>
      <point x="138" y="640" type="line"/>
      <point x="186" y="688"/>
      <point x="224" y="710"/>
      <point x="260" y="710" type="curve" smooth="yes"/>
      <point x="293" y="710"/>
      <point x="310" y="690"/>
      <point x="310" y="650" type="curve" smooth="yes"/>
      <point x="310" y="638"/>
      <point x="308" y="628"/>
      <point x="304" y="610" type="curve" smooth="yes"/>
      <point x="264" y="410" type="line"/>
      <point x="290" y="410" type="line"/>
      <point x="330" y="614" type="line" smooth="yes"/>
      <point x="333" y="627"/>
      <point x="336" y="641"/>
      <point x="336" y="656" type="curve" smooth="yes"/>
      <point x="336" y="704"/>
      <point x="318" y="734"/>
      <point x="262" y="734" type="curve" smooth="yes"/>
      <point x="222" y="734"/>
      <point x="186" y="710"/>
      <point x="148" y="678" type="curve"/>
      <point x="144" y="678" type="line"/>
      <point x="160" y="752" type="line"/>
      <point x="186" y="884" type="line"/>
      <point x="160" y="884" type="line"/>
    </contour>
  </outline>
</glyph>
<glyph name="hoicmb.cap" format="1">
  <advance width="0"/>
  <outline>
    <contour>
      <point x="136" y="682" type="move" name="_aboveUC"/>
    </contour>
    <contour>
      <point x="84" y="702" type="line"/>
      <point x="142" y="720"/>
      <point x="184" y="746"/>
      <point x="184" y="796" type="curve" smooth="yes"/>
      <point x="184" y="828"/>
      <point x="156" y="854"/>
      <point x="88" y="858" type="curve"/>
      <point x="84" y="836" type="line"/>
      <point x="144" y="830"/>
      <point x="158" y="816"/>
      <point x="158" y="790" type="curve" smooth="yes"/>
      <point x="158" y="758"/>
      <point x="130" y="740"/>
      <point x="76" y="722" type="curve"/>
    </contour>
  </outline>
</glyph>
<glyph name="hoicmb" format="1">
  <advance width="0"/>
  <outline>
    <contour>
      <point x="104" y="502" type="move" name="_aboveLC"/>
    </contour>
    <contour>
      <point x="94" y="576" type="line"/>
      <point x="140" y="590"/>
      <point x="188" y="612"/>
      <point x="198" y="662" type="curve" smooth="yes"/>
      <point x="206" y="712"/>
      <point x="154" y="732"/>
      <point x="96" y="734" type="curve"/>
      <point x="90" y="708" type="line"/>
      <point x="142" y="706"/>
      <point x="172" y="690"/>
      <point x="166" y="658" type="curve" smooth="yes"/>
      <point x="162" y="628"/>
      <point x="130" y="612"/>
      <point x="90" y="600" type="curve"/>
    </contour>
  </outline>
</glyph>
<glyph name="hoicmb.cap" format="1">
  <advance width="0"/>
  <outline>
    <contour>
      <point x="136" y="682" type="move" name="_aboveUC"/>
    </contour>
    <contour>
      <point x="84" y="704" type="line"/>
      <point x="130" y="718"/>
      <point x="178" y="738"/>
      <point x="188" y="788" type="curve" smooth="yes"/>
      <point x="196" y="838"/>
      <point x="144" y="858"/>
      <point x="86" y="860" type="curve"/>
      <point x="80" y="834" type="line"/>
      <point x="132" y="832"/>
      <point x="162" y="816"/>
      <point x="156" y="784" type="curve" smooth="yes"/>
      <point x="152" y="754"/>
      <point x="120" y="738"/>
      <point x="80" y="726" type="curve"/>
    </contour>
  </outline>
</glyph>
<glyph name="hungarumlautcmb.cap" format="1">
  <outline>
    <contour>
      <point x="70" y="714" type="line"/>
      <point x="186" y="844" type="line"/>
      <point x="164" y="862" type="line"/>
      <point x="52" y="726" type="line"/>
    </contour>
    <contour>
      <point x="208" y="714" type="line"/>
      <point x="324" y="844" type="line"/>
      <point x="302" y="862" type="line"/>
      <point x="190" y="726" type="line"/>
    </contour>
    <contour>
      <point x="136" y="682" type="move" name="_aboveUC"/>
    </contour>
  </outline>
</glyph>
<glyph name="hyphen" format="1">
  <advance width="282"/>
  <outline>
    <contour>
      <point x="36" y="236" type="line"/>
      <point x="242" y="236" type="line"/>
      <point x="248" y="264" type="line"/>
      <point x="42" y="264" type="line"/>
    </contour>
  </outline>
</glyph>
<glyph name="i.sups" format="1">
  <advance width="150"/>
  <outline>
    <contour>
      <point x="158" y="662" type="curve" smooth="yes"/>
      <point x="174" y="662"/>
      <point x="186" y="676"/>
      <point x="186" y="692" type="curve" smooth="yes"/>
      <point x="186" y="706"/>
      <point x="176" y="716"/>
      <point x="164" y="716" type="curve" smooth="yes"/>
      <point x="148" y="716"/>
      <point x="136" y="702"/>
      <point x="136" y="686" type="curve" smooth="yes"/>
      <point x="136" y="672"/>
      <point x="146" y="662"/>
    </contour>
    <contour>
      <point x="66" y="270" type="line"/>
      <point x="92" y="270" type="line"/>
      <point x="154" y="586" type="line"/>
      <point x="128" y="586" type="line"/>
    </contour>
  </outline>
</glyph>
<glyph name="j.sups" format="1">
  <advance width="150"/>
  <outline>
    <contour>
      <point x="-2" y="118" type="curve" smooth="yes"/>
      <point x="44" y="118"/>
      <point x="69" y="150"/>
      <point x="80" y="208" type="curve" smooth="yes"/>
      <point x="154" y="586" type="line"/>
      <point x="128" y="586" type="line"/>
      <point x="54" y="208" type="line" smooth="yes"/>
      <point x="46" y="170"/>
      <point x="30" y="142"/>
      <point x="0" y="142" type="curve" smooth="yes"/>
      <point x="-16" y="142"/>
      <point x="-26" y="148"/>
      <point x="-34" y="152" type="curve"/>
      <point x="-46" y="132" type="line"/>
      <point x="-32" y="124"/>
      <point x="-18" y="118"/>
    </contour>
    <contour>
      <point x="158" y="662" type="curve" smooth="yes"/>
      <point x="174" y="662"/>
      <point x="186" y="676"/>
      <point x="186" y="692" type="curve" smooth="yes"/>
      <point x="186" y="706"/>
      <point x="176" y="716"/>
      <point x="164" y="716" type="curve" smooth="yes"/>
      <point x="148" y="716"/>
      <point x="136" y="702"/>
      <point x="136" y="686" type="curve" smooth="yes"/>
      <point x="136" y="672"/>
      <point x="146" y="662"/>
    </contour>
  </outline>
</glyph>
<glyph name="lslash" format="1">
  <advance width="226"/>
  <outline>
    <contour>
      <point x="46" y="330" type="line"/>
      <point x="123" y="375" type="line"/>
      <point x="146" y="390" type="line"/>
      <point x="234" y="443" type="line"/>
      <point x="240" y="477" type="line"/>
      <point x="152" y="424" type="line"/>
      <point x="131" y="410" type="line"/>
      <point x="52" y="364" type="line"/>
    </contour>
    <component base="l"/>
  </outline>
</glyph>
<glyph name="macronacute.cap" format="1">
  <outline>
    <contour>
      <point x="14" y="736" type="line"/>
      <point x="244" y="736" type="line"/>
      <point x="250" y="762" type="line"/>
      <point x="20" y="762" type="line"/>
    </contour>
    <contour>
      <point x="136" y="826" type="line"/>
      <point x="252" y="910" type="line"/>
      <point x="234" y="932" type="line"/>
      <point x="122" y="842" type="line"/>
    </contour>
  </outline>
</glyph>
<glyph name="macroncmb.cap" format="1">
  <advance width="0"/>
  <outline>
    <contour>
      <point x="136" y="682" type="move" name="_aboveUC"/>
    </contour>
    <contour>
      <point x="14" y="736" type="line"/>
      <point x="244" y="736" type="line"/>
      <point x="250" y="762" type="line"/>
      <point x="20" y="762" type="line"/>
    </contour>
  </outline>
</glyph>
<glyph name="macroncmb" format="1">
  <advance width="0"/>
  <outline>
    <contour>
      <point x="104" y="502" type="move" name="_aboveLC"/>
    </contour>
    <contour>
      <point x="4" y="608" type="line"/>
      <point x="236" y="608" type="line"/>
      <point x="240" y="634" type="line"/>
      <point x="8" y="634" type="line"/>
    </contour>
  </outline>
</glyph>
<glyph name="naira" format="1">
  <advance width="456"/>
  <outline>
    <contour>
      <point x="44" y="0" type="line"/>
      <point x="72" y="0" type="line"/>
      <point x="149" y="389" type="line"/>
      <point x="186" y="578" type="line"/>
      <point x="188" y="578" type="line"/>
      <point x="210" y="433" type="line"/>
      <point x="278" y="0" type="line"/>
      <point x="307" y="0" type="line"/>
      <point x="437" y="640" type="line"/>
      <point x="409" y="640" type="line"/>
      <point x="332" y="246" type="line"/>
      <point x="297" y="58" type="line"/>
      <point x="293" y="58" type="line"/>
      <point x="273" y="204" type="line"/>
      <point x="200" y="640" type="line"/>
      <point x="173" y="640" type="line"/>
    </contour>
    <contour>
      <point x="36" y="348" type="line"/>
      <point x="448" y="348" type="line"/>
      <point x="454" y="372" type="line"/>
      <point x="122" y="372" type="line"/>
      <point x="42" y="368" type="line"/>
    </contour>
    <contour>
      <point x="16" y="248" type="line"/>
      <point x="428" y="248" type="line"/>
      <point x="434" y="272" type="line"/>
      <point x="102" y="272" type="line"/>
      <point x="22" y="268" type="line"/>
    </contour>
  </outline>
</glyph>
<glyph name="o" format="1">
  <advance width="500"/>
  <outline>
    <contour>
      <point x="204" y="-12" type="curve" smooth="yes"/>
      <point x="334" y="-12"/>
      <point x="454" y="124"/>
      <point x="454" y="302" type="curve" smooth="yes"/>
      <point x="454" y="422"/>
      <point x="392" y="490"/>
      <point x="296" y="490" type="curve" smooth="yes"/>
      <point x="166" y="490"/>
      <point x="46" y="354"/>
      <point x="46" y="176" type="curve" smooth="yes"/>
      <point x="46" y="56"/>
      <point x="108" y="-12"/>
    </contour>
    <contour>
      <point x="206" y="14" type="curve" smooth="yes"/>
      <point x="122" y="14"/>
      <point x="74" y="72"/>
      <point x="74" y="182" type="curve" smooth="yes"/>
      <point x="74" y="334"/>
      <point x="186" y="464"/>
      <point x="294" y="464" type="curve" smooth="yes"/>
      <point x="378" y="464"/>
      <point x="426" y="406"/>
      <point x="426" y="296" type="curve" smooth="yes"/>
      <point x="426" y="144"/>
      <point x="314" y="14"/>
    </contour>
    <contour>
      <point x="390" y="478" type="move" name="hornLC"/>
    </contour>
    <contour>
      <point x="318" y="502" type="move" name="aboveLC"/>
    </contour>
    <contour>
      <point x="214" y="0" type="move" name="ogonekLC"/>
    </contour>
    <contour>
      <point x="188" y="-22" type="move" name="belowLC"/>
    </contour>
  </outline>
</glyph>
<glyph name="ohorn" format="1">
  <advance width="500"/>
  <outline>
    <contour>
      <point x="397" y="442" type="line"/>
      <point x="450" y="452"/>
      <point x="526" y="485"/>
      <point x="526" y="568" type="curve" smooth="yes"/>
      <point x="526" y="584"/>
      <point x="524" y="602"/>
      <point x="518" y="620" type="curve"/>
      <point x="490" y="606" type="line"/>
      <point x="495" y="591"/>
      <point x="497" y="576"/>
      <point x="496" y="564" type="curve" smooth="yes"/>
      <point x="492" y="500"/>
      <point x="444" y="469"/>
      <point x="370" y="464" type="curve"/>
    </contour>
    <component base="o"/>
    <contour>
      <point x="318" y="502" type="move" name="aboveLC"/>
    </contour>
    <contour>
      <point x="188" y="-22" type="move" name="belowLC"/>
    </contour>
  </outline>
</glyph>
<glyph name="ohorntilde" format="1">
  <advance width="500"/>
  <outline>
    <contour>
      <point x="388" y="580" type="curve" smooth="yes"/>
      <point x="449" y="580"/>
      <point x="476" y="646"/>
      <point x="490" y="702" type="curve"/>
      <point x="464" y="704" type="line"/>
      <point x="452" y="651"/>
      <point x="430" y="604"/>
      <point x="392" y="604" type="curve" smooth="yes"/>
      <point x="333" y="604"/>
      <point x="331" y="706"/>
      <point x="260" y="706" type="curve" smooth="yes"/>
      <point x="199" y="706"/>
      <point x="172" y="642"/>
      <point x="158" y="584" type="curve"/>
      <point x="184" y="582" type="line"/>
      <point x="196" y="637"/>
      <point x="218" y="682"/>
      <point x="256" y="682" type="curve" smooth="yes"/>
      <point x="315" y="682"/>
      <point x="317" y="580"/>
    </contour>
    <component base="ohorn"/>
  </outline>
</glyph>
<glyph name="oogonek" format="1">
  <advance width="500"/>
  <outline>
    <contour>
      <point x="184" y="-202" type="curve" smooth="yes"/>
      <point x="200" y="-202"/>
      <point x="220" y="-196"/>
      <point x="238" y="-186" type="curve"/>
      <point x="228" y="-164" type="line"/>
      <point x="214" y="-172"/>
      <point x="202" y="-176"/>
      <point x="186" y="-176" type="curve" smooth="yes"/>
      <point x="164" y="-176"/>
      <point x="148" y="-160"/>
      <point x="148" y="-134" type="curve" smooth="yes"/>
      <point x="148" y="-94"/>
      <point x="189" y="-37"/>
      <point x="260" y="-6" type="curve" smooth="yes"/>
      <point x="378" y="46"/>
      <point x="454" y="154"/>
      <point x="454" y="302" type="curve" smooth="yes"/>
      <point x="454" y="422"/>
      <point x="392" y="490"/>
      <point x="296" y="490" type="curve" smooth="yes"/>
      <point x="166" y="490"/>
      <point x="46" y="354"/>
      <point x="46" y="176" type="curve" smooth="yes"/>
      <point x="46" y="56"/>
      <point x="104" y="-8"/>
      <point x="202" y="-12" type="curve"/>
      <point x="164" y="-32"/>
      <point x="118" y="-88"/>
      <point x="118" y="-140" type="curve" smooth="yes"/>
      <point x="118" y="-182"/>
      <point x="146" y="-202"/>
    </contour>
    <contour>
      <point x="206" y="14" type="curve" smooth="yes"/>
      <point x="122" y="14"/>
      <point x="74" y="72"/>
      <point x="74" y="182" type="curve" smooth="yes"/>
      <point x="74" y="334"/>
      <point x="186" y="464"/>
      <point x="294" y="464" type="curve" smooth="yes"/>
      <point x="378" y="464"/>
      <point x="426" y="406"/>
      <point x="426" y="296" type="curve" smooth="yes"/>
      <point x="426" y="144"/>
      <point x="314" y="14"/>
    </contour>
    <contour>
      <point x="318" y="502" type="move" name="aboveLC"/>
    </contour>
  </outline>
</glyph>
<glyph name="parenright" format="1">
  <advance width="262"/>
  <outline>
    <contour>
      <point x="-36" y="-174" type="line"/>
      <point x="108" y="10"/>
      <point x="196" y="188"/>
      <point x="196" y="422" type="curve" smooth="yes"/>
      <point x="196" y="532"/>
      <point x="174" y="644"/>
      <point x="140" y="730" type="curve"/>
      <point x="120" y="724" type="line"/>
      <point x="152" y="644"/>
      <point x="168" y="528"/>
      <point x="168" y="428" type="curve" smooth="yes"/>
      <point x="168" y="206"/>
      <point x="88" y="12"/>
      <point x="-54" y="-160" type="curve"/>
    </contour>
  </outline>
</glyph>
<glyph name="pi" format="1">
  <advance width="522"/>
  <outline>
    <contour>
      <point x="391" y="-12" type="curve" smooth="yes"/>
      <point x="407" y="-12"/>
      <point x="416" y="-8"/>
      <point x="428" y="-4" type="curve"/>
      <point x="427" y="20" type="line"/>
      <point x="411" y="16"/>
      <point x="403" y="14"/>
      <point x="397" y="14" type="curve" smooth="yes"/>
      <point x="373" y="14"/>
      <point x="361" y="26"/>
      <point x="361" y="49" type="curve" smooth="yes"/>
      <point x="361" y="65"/>
      <point x="409" y="293"/>
      <point x="448" y="452" type="curve"/>
      <point x="534" y="452" type="line"/>
      <point x="540" y="478" type="line"/>
      <point x="144" y="478" type="line"/>
      <point x="80" y="474" type="line"/>
      <point x="76" y="452" type="line"/>
      <point x="168" y="452" type="line"/>
      <point x="140" y="304"/>
      <point x="104" y="150"/>
      <point x="60" y="0" type="curve"/>
      <point x="88" y="-4" type="line"/>
      <point x="128" y="146"/>
      <point x="164" y="300"/>
      <point x="194" y="452" type="curve"/>
      <point x="421" y="452" type="line"/>
      <point x="388" y="299"/>
      <point x="335" y="76"/>
      <point x="335" y="44" type="curve" smooth="yes"/>
      <point x="335" y="5"/>
      <point x="354" y="-12"/>
    </contour>
  </outline>
</glyph>
<glyph name="product" format="1">
  <advance width="618"/>
  <outline>
    <contour>
      <point x="20" y="-120" type="line"/>
      <point x="48" y="-120" type="line"/>
      <point x="196" y="614" type="line"/>
      <point x="570" y="614" type="line"/>
      <point x="422" y="-120" type="line"/>
      <point x="450" y="-120" type="line"/>
      <point x="602" y="640" type="line"/>
      <point x="172" y="640" type="line"/>
    </contour>
  </outline>
</glyph>
<glyph name="r.sups" format="1">
  <advance width="200"/>
  <outline>
    <contour>
      <point x="66" y="270" type="line"/>
      <point x="92" y="270" type="line"/>
      <point x="136" y="488" type="line"/>
      <point x="168" y="542"/>
      <point x="200" y="566"/>
      <point x="232" y="566" type="curve" smooth="yes"/>
      <point x="238" y="566"/>
      <point x="242" y="566"/>
      <point x="250" y="562" type="curve"/>
      <point x="260" y="590" type="line"/>
      <point x="250" y="594"/>
      <point x="246" y="594"/>
      <point x="240" y="594" type="curve" smooth="yes"/>
      <point x="202" y="594"/>
      <point x="172" y="572"/>
      <point x="146" y="536" type="curve"/>
      <point x="142" y="536" type="line"/>
      <point x="150" y="586" type="line"/>
      <point x="128" y="586" type="line"/>
    </contour>
  </outline>
</glyph>
<glyph name="ringcmb.cap" format="1">
  <advance width="0"/>
  <outline>
    <contour>
      <point x="136" y="682" type="move" name="_aboveUC"/>
    </contour>
    <contour>
      <point x="130" y="702" type="curve" smooth="yes"/>
      <point x="182" y="702"/>
      <point x="222" y="742"/>
      <point x="222" y="792" type="curve" smooth="yes"/>
      <point x="222" y="842"/>
      <point x="188" y="866"/>
      <point x="150" y="866" type="curve" smooth="yes"/>
      <point x="98" y="866"/>
      <point x="58" y="826"/>
      <point x="58" y="776" type="curve" smooth="yes"/>
      <point x="58" y="726"/>
      <point x="92" y="702"/>
    </contour>
    <contour>
      <point x="132" y="724" type="curve" smooth="yes"/>
      <point x="101" y="724"/>
      <point x="82" y="744"/>
      <point x="82" y="778" type="curve" smooth="yes"/>
      <point x="82" y="816"/>
      <point x="113" y="844"/>
      <point x="148" y="844" type="curve" smooth="yes"/>
      <point x="180" y="844"/>
      <point x="198" y="824"/>
      <point x="198" y="790" type="curve" smooth="yes"/>
      <point x="198" y="752"/>
      <point x="167" y="724"/>
    </contour>
  </outline>
</glyph>
<glyph name="ringhalfleftmod" format="1">
  <advance width="168"/>
  <outline>
    <contour>
      <point x="182" y="540" type="curve"/>
      <point x="188" y="560" type="line"/>
      <point x="146" y="560"/>
      <point x="132" y="584"/>
      <point x="132" y="614" type="curve" smooth="yes"/>
      <point x="132" y="654"/>
      <point x="160" y="684"/>
      <point x="212" y="686" type="curve"/>
      <point x="216" y="706" type="line"/>
      <point x="148" y="706"/>
      <point x="106" y="664"/>
      <point x="106" y="608" type="curve" smooth="yes"/>
      <point x="106" y="570"/>
      <point x="132" y="538"/>
    </contour>
  </outline>
</glyph>
<glyph name="schwa.sups" format="1">
  <advance width="312"/>
  <outline>
    <contour>
      <point x="322" y="604" type="curve" smooth="yes"/>
      <point x="322" y="688"/>
      <point x="278" y="734"/>
      <point x="210" y="734" type="curve" smooth="yes"/>
      <point x="172" y="734"/>
      <point x="138" y="720"/>
      <point x="114" y="706" type="curve"/>
      <point x="124" y="684" type="line"/>
      <point x="148" y="698"/>
      <point x="174" y="710"/>
      <point x="208" y="710" type="curve" smooth="yes"/>
      <point x="268" y="710"/>
      <point x="304" y="666"/>
      <point x="294" y="578" type="curve"/>
      <point x="66" y="578" type="line"/>
      <point x="60" y="560"/>
      <point x="56" y="531"/>
      <point x="56" y="514" type="curve" smooth="yes"/>
      <point x="56" y="456"/>
      <point x="84" y="402"/>
      <point x="158" y="402" type="curve" smooth="yes"/>
      <point x="234" y="402"/>
      <point x="322" y="484"/>
    </contour>
    <contour>
      <point x="288" y="554" type="line"/>
      <point x="272" y="478"/>
      <point x="212" y="426"/>
      <point x="160" y="426" type="curve" smooth="yes"/>
      <point x="102" y="426"/>
      <point x="82" y="466"/>
      <point x="82" y="510" type="curve" smooth="yes"/>
      <point x="82" y="524"/>
      <point x="84" y="542"/>
      <point x="86" y="554" type="curve"/>
    </contour>
  </outline>
</glyph>
<glyph name="six" format="1">
  <advance width="456"/>
  <outline>
    <contour>
      <point x="212" y="-12" type="curve" smooth="yes"/>
      <point x="318" y="-12"/>
      <point x="404" y="86"/>
      <point x="404" y="212" type="curve" smooth="yes"/>
      <point x="404" y="308"/>
      <point x="348" y="378"/>
      <point x="250" y="378" type="curve" smooth="yes"/>
      <point x="198" y="378"/>
      <point x="130" y="350"/>
      <point x="80" y="288" type="curve"/>
      <point x="78" y="250" type="line"/>
      <point x="138" y="330"/>
      <point x="212" y="350"/>
      <point x="248" y="350" type="curve" smooth="yes"/>
      <point x="332" y="350"/>
      <point x="376" y="292"/>
      <point x="376" y="202" type="curve" smooth="yes"/>
      <point x="376" y="102"/>
      <point x="298" y="14"/>
      <point x="214" y="14" type="curve" smooth="yes"/>
      <point x="130" y="14"/>
      <point x="80" y="94"/>
      <point x="80" y="202" type="curve" smooth="yes"/>
      <point x="80" y="434"/>
      <point x="194" y="626"/>
      <point x="332" y="626" type="curve" smooth="yes"/>
      <point x="378" y="626"/>
      <point x="410" y="604"/>
      <point x="434" y="560" type="curve"/>
      <point x="458" y="576" type="line"/>
      <point x="432" y="622"/>
      <point x="394" y="652"/>
      <point x="334" y="652" type="curve" smooth="yes"/>
      <point x="174" y="652"/>
      <point x="52" y="456"/>
      <point x="52" y="196" type="curve" smooth="yes"/>
      <point x="52" y="76"/>
      <point x="112" y="-12"/>
    </contour>
  </outline>
</glyph>
<glyph name="squareblack" format="1">
  <advance width="910"/>
  <outline>
    <contour>
      <point x="65" y="-60" type="line"/>
      <point x="885" y="-60" type="line"/>
      <point x="885" y="760" type="line"/>
      <point x="65" y="760" type="line"/>
    </contour>
  </outline>
</glyph>
<glyph name="t" format="1">
  <advance width="290"/>
  <outline>
    <contour>
      <point x="170" y="-12" type="curve" smooth="yes"/>
      <point x="198" y="-12"/>
      <point x="224" y="0"/>
      <point x="242" y="10" type="curve"/>
      <point x="232" y="32" type="line"/>
      <point x="216" y="24"/>
      <point x="196" y="14"/>
      <point x="172" y="14" type="curve" smooth="yes"/>
      <point x="118" y="14"/>
      <point x="102" y="38"/>
      <point x="102" y="84" type="curve" smooth="yes"/>
      <point x="102" y="98"/>
      <point x="104" y="110"/>
      <point x="106" y="122" type="curve" smooth="yes"/>
      <point x="174" y="452" type="line"/>
      <point x="306" y="452" type="line"/>
      <point x="312" y="478" type="line"/>
      <point x="180" y="478" type="line"/>
      <point x="208" y="616" type="line"/>
      <point x="184" y="616" type="line"/>
      <point x="152" y="478" type="line"/>
      <point x="74" y="474" type="line"/>
      <point x="70" y="452" type="line"/>
      <point x="146" y="452" type="line"/>
      <point x="78" y="124" type="line" smooth="yes"/>
      <point x="76" y="108"/>
      <point x="74" y="96"/>
      <point x="74" y="78" type="curve" smooth="yes"/>
      <point x="74" y="30"/>
      <point x="98" y="-12"/>
    </contour>
    <contour>
      <point x="194" y="634" type="move" name="aboveLC"/>
    </contour>
    <contour>
      <point x="158" y="0" type="move" name="baseLC"/>
    </contour>
    <contour>
      <point x="148" y="-22" type="move" name="belowLC"/>
    </contour>
  </outline>
</glyph>
<glyph name="t.sups" format="1">
  <advance width="200"/>
  <outline>
    <contour>
      <point x="88" y="502" type="line"/>
      <point x="86" y="490"/>
      <point x="84" y="480"/>
      <point x="84" y="470" type="curve" smooth="yes"/>
      <point x="84" y="434"/>
      <point x="98" y="402"/>
      <point x="150" y="402" type="curve" smooth="yes"/>
      <point x="162" y="402"/>
      <point x="184" y="408"/>
      <point x="198" y="414" type="curve"/>
      <point x="192" y="436" type="line"/>
      <point x="182" y="432"/>
      <point x="172" y="426"/>
      <point x="152" y="426" type="curve" smooth="yes"/>
      <point x="124" y="426"/>
      <point x="110" y="444"/>
      <point x="110" y="474" type="curve" smooth="yes"/>
      <point x="110" y="480"/>
      <point x="112" y="492"/>
      <point x="114" y="502" type="curve" smooth="yes"/>
      <point x="154" y="702" type="line"/>
      <point x="246" y="702" type="line"/>
      <point x="250" y="726" type="line"/>
      <point x="158" y="726" type="line"/>
      <point x="176" y="818" type="line"/>
      <point x="154" y="818" type="line"/>
      <point x="132" y="726" type="line"/>
      <point x="82" y="724" type="line"/>
      <point x="78" y="702" type="line"/>
      <point x="128" y="702" type="line"/>
    </contour>
  </outline>
</glyph>
<glyph name="tildecmb" format="1">
  <outline>
    <contour>
      <point x="198" y="580" type="curve" smooth="yes"/>
      <point x="259" y="580"/>
      <point x="286" y="646"/>
      <point x="300" y="702" type="curve"/>
      <point x="274" y="704" type="line"/>
      <point x="262" y="651"/>
      <point x="240" y="604"/>
      <point x="202" y="604" type="curve" smooth="yes"/>
      <point x="143" y="604"/>
      <point x="141" y="706"/>
      <point x="70" y="706" type="curve" smooth="yes"/>
      <point x="9" y="706"/>
      <point x="-18" y="642"/>
      <point x="-32" y="584" type="curve"/>
      <point x="-6" y="582" type="line"/>
      <point x="6" y="637"/>
      <point x="28" y="682"/>
      <point x="66" y="682" type="curve" smooth="yes"/>
      <point x="125" y="682"/>
      <point x="127" y="580"/>
    </contour>
    <contour>
      <point x="104" y="502" type="move" name="_aboveLC"/>
    </contour>
  </outline>
</glyph>
<glyph name="triangleblackleft" format="1">
  <advance width="534"/>
  <outline>
    <contour>
      <point x="474" y="532" type="line"/>
      <point x="472" y="532" type="line"/>
      <point x="22" y="284" type="line"/>
      <point x="22" y="280" type="line"/>
      <point x="472" y="32" type="line"/>
      <point x="474" y="32" type="line"/>
    </contour>
  </outline>
</glyph>
<glyph name="triangleblackright" format="1">
  <advance width="910"/>
  <outline>
    <contour>
      <point x="65" y="-50" type="line"/>
      <point x="67" y="-50" type="line"/>
      <point x="905" y="348" type="line"/>
      <point x="905" y="352" type="line"/>
      <point x="67" y="750" type="line"/>
      <point x="65" y="750" type="line"/>
    </contour>
  </outline>
</glyph>
<glyph name="trianglewhitedown" format="1">
  <advance width="530"/>
  <outline>
    <contour>
      <point x="507" y="509" type="line"/>
      <point x="25" y="509" type="line"/>
      <point x="25" y="507" type="line"/>
      <point x="265" y="38" type="line"/>
      <point x="269" y="38" type="line"/>
      <point x="507" y="507" type="line"/>
    </contour>
    <contour>
      <point x="457" y="483" type="line"/>
      <point x="267" y="93" type="line"/>
      <point x="76" y="483" type="line"/>
    </contour>
  </outline>
</glyph>
<glyph name="trianglewhiteleft" format="1">
  <advance width="534"/>
  <outline>
    <contour>
      <point x="474" y="531" type="line"/>
      <point x="472" y="531" type="line"/>
      <point x="21" y="284" type="line"/>
      <point x="21" y="280" type="line"/>
      <point x="472" y="31" type="line"/>
      <point x="474" y="31" type="line"/>
    </contour>
    <contour>
      <point x="445" y="482" type="line"/>
      <point x="445" y="82" type="line"/>
      <point x="79" y="282" type="line"/>
    </contour>
  </outline>
</glyph>
<glyph name="trianglewhiteup" format="1">
  <advance width="910"/>
  <outline>
    <contour>
      <point x="75" y="-60" type="line"/>
      <point x="875" y="-60" type="line"/>
      <point x="875" y="-58" type="line"/>
      <point x="477" y="780" type="line"/>
      <point x="473" y="780" type="line"/>
      <point x="75" y="-58" type="line"/>
    </contour>
    <contour>
      <point x="120" y="-32" type="line"/>
      <point x="475" y="720" type="line"/>
      <point x="830" y="-32" type="line"/>
    </contour>
  </outline>
</glyph>
<glyph name="two.onum" format="1">
	<advance width="448"/>
	<outline>
		<contour>
			<point x="-8" y="0" type="line"/>
			<point x="352" y="0" type="line"/>
			<point x="356" y="26" type="line"/>
			<point x="44" y="26" type="line"/>
			<point x="287" y="222"/>
			<point x="402" y="307"/>
			<point x="402" y="436" type="curve" smooth="yes"/>
			<point x="402" y="518"/>
			<point x="352" y="582"/>
			<point x="260" y="582" type="curve" smooth="yes"/>
			<point x="196" y="582"/>
			<point x="144" y="552"/>
			<point x="88" y="504" type="curve"/>
			<point x="106" y="482" type="line"/>
			<point x="156" y="532"/>
			<point x="210" y="556"/>
			<point x="258" y="556" type="curve" smooth="yes"/>
			<point x="336" y="556"/>
			<point x="374" y="498"/>
			<point x="374" y="430" type="curve" smooth="yes"/>
			<point x="374" y="316"/>
			<point x="267" y="239"/>
			<point x="-6" y="20" type="curve"/>
		</contour>
	</outline>
</glyph>
<glyph name="uhorn" format="1">
  <advance width="524"/>
  <outline>
    <contour>
      <point x="308" y="502" type="move" name="aboveLC"/>
    </contour>
    <contour>
      <point x="240" y="-22" type="move" name="belowLC"/>
    </contour>
    <contour>
      <point x="463" y="456" type="line"/>
      <point x="498" y="464"/>
      <point x="574" y="500"/>
      <point x="574" y="584" type="curve" smooth="yes"/>
      <point x="574" y="600"/>
      <point x="572" y="618"/>
      <point x="566" y="636" type="curve"/>
      <point x="538" y="622" type="line"/>
      <point x="543" y="607"/>
      <point x="545" y="592"/>
      <point x="544" y="580" type="curve" smooth="yes"/>
      <point x="540" y="515"/>
      <point x="491" y="482"/>
      <point x="440" y="478" type="curve"/>
    </contour>
    <component base="u"/>
  </outline>
</glyph>
<glyph name="v.sups" format="1">
  <advance width="282"/>
  <outline>
    <contour>
      <point x="126" y="270" type="line"/>
      <point x="162" y="270" type="line"/>
      <point x="340" y="586" type="line"/>
      <point x="312" y="586" type="line"/>
      <point x="202" y="388" type="line"/>
      <point x="150" y="294" type="line"/>
      <point x="146" y="294" type="line"/>
      <point x="130" y="388" type="line"/>
      <point x="100" y="586" type="line"/>
      <point x="74" y="586" type="line"/>
    </contour>
  </outline>
</glyph>
<glyph name="verticallinelowmod" format="1">
  <advance width="84"/>
  <outline>
    <contour>
      <point x="-8" y="-76" type="line"/>
      <point x="-28" y="-76" type="line"/>
      <point x="-66" y="-244" type="line"/>
      <point x="-36" y="-244" type="line"/>
    </contour>
  </outline>
</glyph>
<glyph name="x.sups" format="1">
  <advance width="264"/>
  <outline>
    <contour>
      <point x="8" y="410" type="line"/>
      <point x="40" y="410" type="line"/>
      <point x="118" y="500" type="line"/>
      <point x="164" y="554" type="line"/>
      <point x="168" y="554" type="line"/>
      <point x="196" y="492" type="line"/>
      <point x="232" y="410" type="line"/>
      <point x="258" y="410" type="line"/>
      <point x="188" y="572" type="line"/>
      <point x="320" y="726" type="line"/>
      <point x="288" y="726" type="line"/>
      <point x="220" y="644" type="line"/>
      <point x="178" y="596" type="line"/>
      <point x="174" y="596" type="line"/>
      <point x="148" y="652" type="line"/>
      <point x="116" y="726" type="line"/>
      <point x="90" y="726" type="line"/>
      <point x="156" y="576" type="line"/>
    </contour>
  </outline>
</glyph>
<glyph name="y.sups" format="1">
  <advance width="282"/>
  <outline>
    <contour>
      <point x="20" y="258" type="curve" smooth="yes"/>
      <point x="88" y="258"/>
      <point x="122" y="324"/>
      <point x="150" y="376" type="curve" smooth="yes"/>
      <point x="340" y="726" type="line"/>
      <point x="312" y="726" type="line"/>
      <point x="204" y="528" type="line"/>
      <point x="158" y="438" type="line"/>
      <point x="154" y="438" type="line"/>
      <point x="138" y="528" type="line"/>
      <point x="100" y="726" type="line"/>
      <point x="74" y="726" type="line"/>
      <point x="137" y="406" type="line"/>
      <point x="126" y="382" type="line"/>
      <point x="98" y="332"/>
      <point x="66" y="282"/>
      <point x="22" y="282" type="curve" smooth="yes"/>
      <point x="6" y="282"/>
      <point x="2" y="286"/>
      <point x="-6" y="290" type="curve"/>
      <point x="-18" y="270" type="line"/>
      <point x="-4" y="262"/>
      <point x="4" y="258"/>
    </contour>
  </outline>
</glyph>
<glyph name="z" format="1">
  <advance width="384"/>
  <outline>
    <contour>
      <point x="-10" y="0" type="line"/>
      <point x="318" y="0" type="line"/>
      <point x="324" y="26" type="line"/>
      <point x="32" y="26" type="line"/>
      <point x="404" y="460" type="line"/>
      <point x="406" y="478" type="line"/>
      <point x="116" y="478" type="line"/>
      <point x="110" y="452" type="line"/>
      <point x="364" y="452" type="line"/>
      <point x="-8" y="18" type="line"/>
    </contour>
    <contour>
      <point x="262" y="502" type="move" name="aboveLC"/>
    </contour>
    <contour>
      <point x="164" y="-22" type="move" name="belowLC"/>
    </contour>
  </outline>
</glyph>
<glyph name="z.sups" format="1">
  <advance width="262"/>
  <outline>
    <contour>
      <point x="22" y="410" type="line"/>
      <point x="246" y="410" type="line"/>
      <point x="250" y="434" type="line"/>
      <point x="62" y="434" type="line"/>
      <point x="302" y="710" type="line"/>
      <point x="304" y="726" type="line"/>
      <point x="104" y="726" type="line"/>
      <point x="100" y="702" type="line"/>
      <point x="262" y="702" type="line"/>
      <point x="24" y="426" type="line"/>
    </contour>
  </outline>
</glyph>
